<?xml version="1.0" encoding="UTF-8"?>
<svg id="Capa_1" data-name="Capa 1" xmlns="http://www.w3.org/2000/svg" viewBox="0 0 284.67 187.82">
  <path d="M149.1,91.31c1.89,27.78-12.69,53.18-37.06,60.8-29.27,9.15-61.56-10.8-72.12-44.57-10.56-33.77,4.61-68.56,33.88-77.71,25.75-8.05,53.83,6.43,67.4,33.02l16.74-4.54C139.16,15.07,95.28-9.24,55.19,3.29,11.81,16.86-10.67,68.42,4.98,118.47c15.65,50.05,63.5,79.62,106.89,66.06,38.36-11.99,60.36-53.7,54.13-97.79l-16.89,4.58Z" fill="#fff"/>
  <path d="M284.15,61.47l-22.52-17.26,14.61-21.43c.68-.99-.21-2.3-1.38-2.04l-27.9,6.22c-1.89.42-3.57,1.5-4.74,3.04l-14.97,19.71-112.39,30.46c-5.05-10.85-16.22-16.89-26.46-13.69-11.3,3.53-17.16,16.97-13.08,30,4.08,13.04,16.54,20.74,27.84,17.21,9.55-2.99,15.18-13.04,14.25-23.96l111.02-30.09,18.32,10.47c1.79,1.02,3.9,1.33,5.91.87l30.99-7.17c1.09-.25,1.39-1.66.51-2.34Z" fill="#fff"/>
</svg>