<?xml version="1.0" encoding="UTF-8"?>
<svg id="Capa_1" data-name="Capa 1" xmlns="http://www.w3.org/2000/svg" viewBox="0 0 274.19 145.56">
  <path d="M167.03,72.78c0-3.45-.64-6.75-1.75-9.82-2.14,3.63-6.06,6.1-10.58,6.1-6.81,0-12.33-5.52-12.33-12.33,0-4.68,2.64-8.71,6.49-10.79-3.33-1.34-6.96-2.09-10.76-2.09-15.98,0-28.93,12.95-28.93,28.93s12.95,28.93,28.93,28.93,28.93-12.95,28.93-28.93Z" fill="#fff"/>
  <path d="M274.19,71.88c-3.31-4.75-28.23-39.26-73.16-58.7,10.08,10.64,17.51,23.83,21.18,38.51,9.58,7.12,17.17,14.41,22.69,20.4-8.66,9.64-22.71,22.9-41.82,33.43,4.97-9.85,7.79-20.96,7.79-32.75C210.87,33.11,179.13.87,139.65.04V0c-.35,0-.69.01-1.03,0-.18,0-.35-.01-.53-.01-.39,0-.77.02-1.15.03C51.84.16,3.74,66.52,0,71.88c2.46,3.71,28.42,41.33,75.94,61.32-10.3-10.59-17.92-23.8-21.75-38.54-10.63-7.83-18.94-15.96-24.79-22.47,9.21-9.84,24.26-23.44,44.59-33.88-5.53,10.26-8.67,21.99-8.67,34.46,0,38.44,29.82,69.91,67.58,72.57l-.02.11c1.47.04,2.94.06,4.42.07.27,0,.53.02.8.02.05,0,.11,0,.16,0,.06,0,.11,0,.16,0,.33,0,.64-.03.97-.03.95-.02,1.9-.04,2.85-.09,83.13-2.63,128.3-68.05,131.96-73.55ZM89.81,72.78c0-26.67,21.62-48.29,48.29-48.29s48.29,21.62,48.29,48.29-21.62,48.29-48.29,48.29-48.29-21.62-48.29-48.29Z" fill="#fff"/>
</svg>