<?xml version="1.0" encoding="UTF-8" standalone="no"?>
<!-- Created with Inkscape (http://www.inkscape.org/) -->

<svg
   width="250"
   height="250"
   viewBox="0 0 66.145833 66.145833"
   version="1.1"
   id="svg1"
   inkscape:version="1.3 (0e150ed6c4, 2023-07-21)"
   sodipodi:docname="ficha.svg"
   xml:space="preserve"
   xmlns:inkscape="http://www.inkscape.org/namespaces/inkscape"
   xmlns:sodipodi="http://sodipodi.sourceforge.net/DTD/sodipodi-0.dtd"
   xmlns="http://www.w3.org/2000/svg"
   xmlns:svg="http://www.w3.org/2000/svg"><sodipodi:namedview
     id="namedview1"
     pagecolor="#ffffff"
     bordercolor="#000000"
     borderopacity="0.25"
     inkscape:showpageshadow="2"
     inkscape:pageopacity="0.0"
     inkscape:pagecheckerboard="0"
     inkscape:deskcolor="#d1d1d1"
     inkscape:document-units="mm"
     inkscape:zoom="1.9578168"
     inkscape:cx="80.702137"
     inkscape:cy="133.56714"
     inkscape:window-width="1920"
     inkscape:window-height="991"
     inkscape:window-x="-9"
     inkscape:window-y="-9"
     inkscape:window-maximized="1"
     inkscape:current-layer="layer1"
     showguides="true"><sodipodi:guide
       position="12.433067,25.603225"
       orientation="1,0"
       id="guide1"
       inkscape:locked="false" /><sodipodi:guide
       position="-2.2974145,63.713277"
       orientation="0,-1"
       id="guide2"
       inkscape:locked="false" /><sodipodi:guide
       position="53.651385,9.1158974"
       orientation="1,0"
       id="guide3"
       inkscape:locked="false" /><sodipodi:guide
       position="-15.676475,2.62908"
       orientation="0,-1"
       id="guide4"
       inkscape:locked="false" /></sodipodi:namedview><defs
     id="defs1" /><g
     inkscape:label="Capa 1"
     inkscape:groupmode="layer"
     id="layer1"><path
       style="fill:#17b8db;fill-opacity:1;stroke-width:1.06107"
       d="m 17.809454,61.768227 c 0,-1.554099 3.052693,-1.831616 20.147771,-1.831616 H 58.104997 V 41.620455 23.304301 H 49.557456 41.009917 V 14.756761 6.2092217 H 27.578071 c -11.125369,0 -13.431848,0.3145198 -13.431848,1.8316159 0,1.0073879 0.989072,1.8316147 2.197939,1.8316147 4.536358,0 5.130513,2.3543067 5.069276,20.0867177 -0.05867,16.989056 -0.09882,17.233084 -4.122412,25.057938 L 13.227862,62.918915 8.8027348,54.131784 C 4.3965964,45.382364 4.3776055,45.276772 4.3776055,29.527389 c 0,-12.75123 0.3719499,-16.189215 1.9188353,-17.736102 1.0553608,-1.055358 2.7038144,-1.9188347 3.6632317,-1.9188347 1.1241665,0 1.7443965,-1.3024818 1.7443965,-3.6632306 V 2.5459905 h 15.597379 15.597378 l 9.4347,9.4903615 9.434702,9.490362 V 42.563278 63.599843 H 39.788841 c -18.723181,0 -21.979387,-0.271351 -21.979387,-1.831616 z M 17.167559,49.007556 c 1.270513,-2.456902 1.862972,-7.145272 1.862972,-14.742459 0,-9.950981 -0.228056,-11.096265 -2.136884,-10.731321 -1.807442,0.345559 -2.191278,2.053646 -2.489695,11.079227 -0.466857,14.120051 -2.699883,13.856204 -2.699883,-0.31901 0,-8.954564 -0.339189,-10.989692 -1.8316161,-10.989692 -2.7014621,0 -2.6423024,22.720728 0.069245,26.591997 2.5932821,3.702428 5.0050771,3.405791 7.2258661,-0.888742 z m 1.862972,-31.726355 c 0,-4.026597 -3.020819,-5.699049 -8.025128,-4.443048 -2.3092967,0.579596 -2.964566,1.548614 -2.964566,4.384026 0,3.499984 0.2113175,3.639967 5.494848,3.639967 5.263275,0 5.494846,-0.150913 5.494846,-3.580945 z m 36.632312,3.229774 c 0,-0.193145 -2.747425,-3.057284 -6.105387,-6.364752 L 43.452072,8.132642 v 6.364752 6.364752 h 6.105384 c 3.357962,0 6.105387,-0.158028 6.105387,-0.351171 z"
       id="path4" /></g></svg>
