<?xml version="1.0" encoding="UTF-8" standalone="no"?>
<!-- Created with Inkscape (http://www.inkscape.org/) -->

<svg
   width="250"
   height="250"
   viewBox="0 0 66.145833 66.145833"
   version="1.1"
   id="svg1"
   inkscape:version="1.3 (0e150ed6c4, 2023-07-21)"
   sodipodi:docname="geo.svg"
   xml:space="preserve"
   xmlns:inkscape="http://www.inkscape.org/namespaces/inkscape"
   xmlns:sodipodi="http://sodipodi.sourceforge.net/DTD/sodipodi-0.dtd"
   xmlns="http://www.w3.org/2000/svg"
   xmlns:svg="http://www.w3.org/2000/svg"><sodipodi:namedview
     id="namedview1"
     pagecolor="#ffffff"
     bordercolor="#000000"
     borderopacity="0.25"
     inkscape:showpageshadow="2"
     inkscape:pageopacity="0.0"
     inkscape:pagecheckerboard="0"
     inkscape:deskcolor="#d1d1d1"
     inkscape:document-units="mm"
     inkscape:zoom="1.9578168"
     inkscape:cx="80.702137"
     inkscape:cy="133.56714"
     inkscape:window-width="1920"
     inkscape:window-height="991"
     inkscape:window-x="-9"
     inkscape:window-y="-9"
     inkscape:window-maximized="1"
     inkscape:current-layer="layer1"
     showguides="true"><sodipodi:guide
       position="12.433067,25.603225"
       orientation="1,0"
       id="guide1"
       inkscape:locked="false" /><sodipodi:guide
       position="-2.2974145,63.713277"
       orientation="0,-1"
       id="guide2"
       inkscape:locked="false" /><sodipodi:guide
       position="53.651385,9.1158974"
       orientation="1,0"
       id="guide3"
       inkscape:locked="false" /><sodipodi:guide
       position="-15.676475,2.62908"
       orientation="0,-1"
       id="guide4"
       inkscape:locked="false" /></sodipodi:namedview><defs
     id="defs1" /><g
     inkscape:label="Capa 1"
     inkscape:groupmode="layer"
     id="layer1"><path
       style="fill:#17b8db;stroke-width:2.04748;fill-opacity:1"
       d="M 27.134421,57.182832 C 24.579938,53.735307 20.335024,46.625483 17.701279,41.383224 11.758202,29.554004 10.873183,18.514817 15.379296,12.420272 c 9.587635,-12.96732953 25.799606,-12.96732953 35.387241,0 4.506113,6.094545 3.621094,17.133732 -2.321983,28.962952 -5.257687,10.465004 -13.339788,22.067834 -15.371636,22.067834 -0.711692,0 -3.384016,-2.820702 -5.938497,-6.268226 z M 45.283168,41.67722 C 53.699418,25.555315 51.655334,12.099636 40.043341,7.1848026 34.496831,4.8372157 31.16398,4.9171086 25.65851,7.5296257 11.574964,14.212706 12.736974,32.700665 28.541516,53.39925 l 4.829505,6.325012 4.578283,-6.384269 c 2.518054,-3.511346 5.818293,-8.759595 7.333864,-11.662773 z M 31.093477,34.708599 C 18.441549,32.058603 20.337942,13.305253 33.257844,13.305253 c 11.631859,0 14.614117,16.937755 3.666409,20.823392 -1.755337,0.623017 -4.379187,0.883995 -5.830776,0.579954 z m 7.483944,-5.112543 c 4.787632,-4.332749 1.541378,-13.651551 -4.755591,-13.651551 -4.423439,0 -8.666672,3.700798 -8.666672,7.558772 0,7.177485 8.140499,10.87271 13.422263,6.092779 z"
       id="path1" /></g></svg>
