<?xml version="1.0" encoding="UTF-8" standalone="no"?>
<!-- Created with Inkscape (http://www.inkscape.org/) -->

<svg
   width="250"
   height="250"
   viewBox="0 0 66.145833 66.145833"
   version="1.1"
   id="svg1"
   inkscape:version="1.3 (0e150ed6c4, 2023-07-21)"
   sodipodi:docname="mapa.svg"
   xml:space="preserve"
   xmlns:inkscape="http://www.inkscape.org/namespaces/inkscape"
   xmlns:sodipodi="http://sodipodi.sourceforge.net/DTD/sodipodi-0.dtd"
   xmlns="http://www.w3.org/2000/svg"
   xmlns:svg="http://www.w3.org/2000/svg"><sodipodi:namedview
     id="namedview1"
     pagecolor="#ffffff"
     bordercolor="#000000"
     borderopacity="0.25"
     inkscape:showpageshadow="2"
     inkscape:pageopacity="0.0"
     inkscape:pagecheckerboard="0"
     inkscape:deskcolor="#d1d1d1"
     inkscape:document-units="mm"
     inkscape:zoom="1.9578168"
     inkscape:cx="80.702137"
     inkscape:cy="133.56714"
     inkscape:window-width="1920"
     inkscape:window-height="991"
     inkscape:window-x="-9"
     inkscape:window-y="-9"
     inkscape:window-maximized="1"
     inkscape:current-layer="layer1"
     showguides="true"><sodipodi:guide
       position="12.433067,25.603225"
       orientation="1,0"
       id="guide1"
       inkscape:locked="false" /><sodipodi:guide
       position="-2.2974145,63.713277"
       orientation="0,-1"
       id="guide2"
       inkscape:locked="false" /><sodipodi:guide
       position="53.651385,9.1158974"
       orientation="1,0"
       id="guide3"
       inkscape:locked="false" /><sodipodi:guide
       position="-15.676475,2.62908"
       orientation="0,-1"
       id="guide4"
       inkscape:locked="false" /></sodipodi:namedview><defs
     id="defs1" /><g
     inkscape:label="Capa 1"
     inkscape:groupmode="layer"
     id="layer1"><path
       style="fill:#17b8db;fill-opacity:1;stroke-width:1.20557"
       d="M 32.422923,61.086698 C 26.757529,59.413521 19.217935,58.430272 12.027241,58.426869 L 0.61948706,58.421469 V 36.171475 13.921481 L 15.125444,14.393036 29.6314,14.864591 30.944871,11.091725 c 1.71616,-4.9295632 9.361952,-9.6741132 13.922876,-8.6397549 5.140296,1.1657529 10.200748,5.308038 11.093109,9.0803789 0.661613,2.796883 1.499979,3.25996 5.218258,2.882339 l 4.430003,-0.449903 v 21.898464 21.898464 l -10.797944,3.095395 c -12.608506,3.614418 -10.983602,3.597754 -22.38825,0.22959 z M 42.10223,50.955252 c 0,-7.778409 -0.570938,-9.697386 -4.719206,-15.861684 -2.595563,-3.856992 -5.443904,-9.20857 -6.329647,-11.892396 -1.10024,-3.333763 -2.452606,-4.879686 -4.268722,-4.879686 -2.490694,0 -2.65828,1.171772 -2.65828,18.586862 V 55.49521 l 6.5681,2.010541 c 11.381829,3.484057 11.407755,3.469171 11.407755,-6.550499 z m 11.886316,6.67672 7.472297,-2.172256 V 36.789212 c 0,-16.361363 -0.272991,-18.615211 -2.207265,-18.223426 -1.213995,0.245894 -2.990282,2.730707 -3.947305,5.521809 -0.957023,2.791103 -3.697201,7.736054 -6.089285,10.988782 -3.871389,5.264272 -4.349241,6.947591 -4.349241,15.320951 0,5.173795 0.370912,9.4069 0.824251,9.4069 0.453339,0 4.186786,-0.977515 8.296548,-2.172256 z M 20.66948,36.297341 V 17.630107 L 12.71862,17.215413 4.7677611,16.800718 v 18.621009 c 0,13.585759 0.4673847,18.818342 1.7284474,19.350776 0.9506467,0.401371 4.5285335,0.608785 7.9508595,0.460919 L 20.66948,54.964574 Z M 48.329459,30.191449 C 53.499968,21.368645 54.534484,16.777862 52.462582,11.850257 50.551749,7.3057219 48.097464,5.8766636 42.203448,5.8766636 c -7.439826,0 -11.397827,8.6628974 -7.844044,17.1682984 2.584015,6.184416 7.470141,13.252379 9.161453,13.252379 0.676672,0 2.840542,-2.747651 4.808602,-6.105892 z M 39.24052,18.896959 c -1.317601,-1.587614 -1.418498,-2.823798 -0.366792,-4.493964 2.062159,-3.274821 6.196216,-3.715034 8.268871,-0.880509 3.838047,5.248841 -3.732862,10.398072 -7.902079,5.374473 z m 5.627227,-2.64961 c 0,-1.140775 -0.622241,-2.074138 -1.382759,-2.074138 -0.760517,0 -1.382758,0.933363 -1.382758,2.074138 0,1.140775 0.622241,2.074137 1.382758,2.074137 0.760518,0 1.382759,-0.933362 1.382759,-2.074137 z"
       id="path5" /></g></svg>
