<?xml version="1.0" encoding="UTF-8" standalone="no"?>
<!-- Created with Inkscape (http://www.inkscape.org/) -->

<svg
   width="250"
   height="250"
   viewBox="0 0 66.145833 66.145833"
   version="1.1"
   id="svg1"
   inkscape:version="1.3 (0e150ed6c4, 2023-07-21)"
   sodipodi:docname="catastro.svg"
   xmlns:inkscape="http://www.inkscape.org/namespaces/inkscape"
   xmlns:sodipodi="http://sodipodi.sourceforge.net/DTD/sodipodi-0.dtd"
   xmlns="http://www.w3.org/2000/svg"
   xmlns:svg="http://www.w3.org/2000/svg">
  <sodipodi:namedview
     id="namedview1"
     pagecolor="#ffffff"
     bordercolor="#000000"
     borderopacity="0.25"
     inkscape:showpageshadow="2"
     inkscape:pageopacity="0.0"
     inkscape:pagecheckerboard="0"
     inkscape:deskcolor="#d1d1d1"
     inkscape:document-units="mm"
     inkscape:zoom="1.9578168"
     inkscape:cx="80.702137"
     inkscape:cy="133.56714"
     inkscape:window-width="1920"
     inkscape:window-height="991"
     inkscape:window-x="-9"
     inkscape:window-y="-9"
     inkscape:window-maximized="1"
     inkscape:current-layer="layer1" />
  <defs
     id="defs1" />
  <g
     inkscape:label="Capa 1"
     inkscape:groupmode="layer"
     id="layer1">
    <ellipse
       style="fill:#17b8db;fill-opacity:1;stroke:#17b8db;stroke-width:0.395738;stroke-linecap:round;stroke-linejoin:round;stroke-opacity:0"
       id="path1-7"
       cx="33.072918"
       cy="33.072918"
       rx="32.362751"
       ry="32.303787" />
    <path
       style="fill:#ffffff;fill-opacity:1;stroke-width:0.460516"
       d="m 14.627809,48.166491 c -0.810904,-0.325425 -0.762081,0.641435 -0.762081,-15.091436 0,-15.798894 -0.0543,-14.773843 0.799795,-15.097976 0.42701,-0.162055 36.387605,-0.162055 36.814615,0 0.8539,0.324057 0.799761,-0.693442 0.800063,15.03711 2.89e-4,15.562137 0.0402,14.737221 -0.731089,15.121891 -0.369854,0.184468 -36.463336,0.214197 -36.921303,0.0304 z m 5.458874,-0.696458 0.371845,-0.334766 -2.991965,-2.981539 -2.991968,-2.981535 0.0019,3.042401 c 0.0023,3.884365 -0.261197,3.571125 3.014615,3.582492 l 2.223765,0.0077 z m 9.933101,-3.31509 3.663754,-3.649852 3.662369,3.649852 3.662372,3.649861 h 3.197169 c 1.758446,0 3.197169,-0.03963 3.197169,-0.08803 0,-0.04842 -0.341991,-0.432457 -0.759976,-0.853427 l -0.759976,-0.765394 2.894199,-2.890815 2.894202,-2.890811 v -2.859161 -2.85916 l -4.329595,4.320419 -4.329599,4.320423 -3.057755,-3.052191 -3.057763,-3.052188 7.387355,-7.28297 7.387357,-7.282966 -0.002,-1.837715 c -0.0024,-2.489037 0.126154,-2.385515 -2.965194,-2.385515 h -2.097488 l -1.64222,1.642615 -1.642225,1.642605 0.850657,0.855665 0.850649,0.855661 -5.548427,5.465214 -5.548427,5.465213 -2.165954,-2.152366 -2.165953,-2.15237 0.434108,-0.816036 c 1.616645,-3.038972 1.697769,-6.860276 0.20873,-9.832329 l -0.457426,-0.913005 -2.792215,-0.03277 -2.792213,-0.03277 0.855924,0.89942 c 6.189875,6.504451 -3.278204,15.903585 -9.692752,9.622174 l -0.884158,-0.865825 v 2.772379 2.77238 l 0.529296,0.29529 c 3.111438,1.735845 7.729533,1.630653 10.784479,-0.24565 l 0.609062,-0.374074 2.148633,2.069809 c 1.181749,1.138401 2.148633,2.133995 2.148633,2.212434 0,0.07845 -1.618996,1.757972 -3.59777,3.732293 l -3.597772,3.589663 -4.512278,-4.502825 -4.512283,-4.502826 v 2.311517 2.311517 l 3.359439,3.354927 c 3.334319,3.329834 3.357578,3.35661 3.109871,3.580369 -0.447221,0.403996 -0.284461,0.431182 2.581276,0.431182 h 2.830849 z m 6.95563,0.363056 -3.291112,-3.2868 -3.202182,3.19464 c -1.761199,1.757051 -3.202183,3.236114 -3.202183,3.286804 0,0.05068 2.921981,0.09216 6.493293,0.09216 h 6.493288 z m 14.16692,3.157455 c 0.521889,-0.198061 0.524875,-0.217687 0.526864,-3.460675 l 0.002,-3.04222 -2.499118,2.492338 -2.499123,2.492343 0.818961,0.823781 0.81896,0.823783 h 1.245377 c 0.684959,0 1.398753,-0.05821 1.58621,-0.12935 z m -24.350038,-6.870507 3.230281,-3.226116 -1.840637,-1.837285 -1.840641,-1.837285 -0.658768,0.366457 c -3.001224,1.669491 -7.110397,1.805514 -10.286984,0.340509 l -0.920952,-0.424728 v 0.447967 c 0,0.394029 8.646522,9.396599 9.024963,9.396599 0.03434,0 1.516083,-1.451753 3.292738,-3.226118 z m 20.5792,-2.646873 4.29957,-4.290466 v -5.295911 -5.29592 l -6.981363,6.968644 -6.981356,6.968644 2.620378,2.617733 c 1.441215,1.439752 2.648019,2.617733 2.681793,2.617733 0.03379,0 1.996211,-1.930705 4.360978,-4.290457 z m -8.229456,-9.802094 5.092477,-5.084277 -0.855881,-0.847776 -0.855884,-0.847775 1.615036,-1.61542 1.615042,-1.615424 h -0.604256 -0.604261 l -4.486492,4.47229 -4.486493,4.472287 -1.492384,-1.489661 -1.492379,-1.489664 2.986201,-2.982626 2.986201,-2.982626 h -4.05409 c -2.229748,0 -4.054091,0.0296 -4.054091,0.06571 0,0.03618 0.116529,0.293718 0.258953,0.572383 1.512714,2.959767 1.495335,7.052136 -0.04301,10.122946 l -0.359705,0.718033 1.808216,1.807934 c 0.994516,0.994367 1.836586,1.807933 1.871259,1.807933 0.03468,0 2.354661,-2.28792 5.155524,-5.084274 z m -17.219796,1.72303 c 5.193162,-1.538 6.237497,-8.748982 1.647653,-11.376799 l -0.619381,-0.354613 -2.779354,-8.01e-4 c -3.416434,-0.0012 -4.005467,0.236016 -5.257743,2.119215 l -0.438824,0.659907 v 2.890313 2.890318 l 0.380944,0.592566 c 1.400389,2.178341 4.545825,3.326822 7.066705,2.580238 z m 19.661702,-11.706182 -2.161776,-0.03337 -3.013418,3.006117 -3.013413,3.006122 1.119283,1.066545 1.119279,1.066545 4.055906,-4.039316 4.05591,-4.039315 z"
       id="path54" />
  </g>
</svg>
