<?xml version="1.0" encoding="UTF-8" standalone="no"?>
<!-- Created with Inkscape (http://www.inkscape.org/) -->

<svg
   width="250"
   height="250"
   viewBox="0 0 66.145833 66.145833"
   version="1.1"
   id="svg1"
   inkscape:version="1.3 (0e150ed6c4, 2023-07-21)"
   sodipodi:docname="obras.svg"
   xmlns:inkscape="http://www.inkscape.org/namespaces/inkscape"
   xmlns:sodipodi="http://sodipodi.sourceforge.net/DTD/sodipodi-0.dtd"
   xmlns="http://www.w3.org/2000/svg"
   xmlns:svg="http://www.w3.org/2000/svg">
  <sodipodi:namedview
     id="namedview1"
     pagecolor="#ffffff"
     bordercolor="#000000"
     borderopacity="0.25"
     inkscape:showpageshadow="2"
     inkscape:pageopacity="0.0"
     inkscape:pagecheckerboard="0"
     inkscape:deskcolor="#d1d1d1"
     inkscape:document-units="mm"
     inkscape:zoom="1.9578168"
     inkscape:cx="80.446752"
     inkscape:cy="133.56715"
     inkscape:window-width="1920"
     inkscape:window-height="991"
     inkscape:window-x="-9"
     inkscape:window-y="-9"
     inkscape:window-maximized="1"
     inkscape:current-layer="layer1" />
  <defs
     id="defs1" />
  <g
     inkscape:label="Capa 1"
     inkscape:groupmode="layer"
     id="layer1">
    <g
       id="g58"
       transform="matrix(0.49437773,0,0,0.49347534,-43.156024,-84.489842)">
      <circle
         style="fill:#17b8db;fill-opacity:1;stroke:#17b8db;stroke-width:0.799999;stroke-linecap:round;stroke-linejoin:round;stroke-opacity:0"
         id="path1-2-4"
         cx="154.1917"
         cy="238.23431"
         r="65.362938" />
      <path
         style="fill:#ffffff;fill-opacity:1;stroke-width:1.15486"
         d="m 117.86768,275.97701 c -6.28519,-1.93009 -7.97427,-6.08509 -6.30962,-15.52117 1.44925,-8.21513 2.48822,-9.30502 7.60415,-7.97688 1.06895,0.2775 1.97265,0.46247 2.00823,0.41103 0.0356,-0.0514 2.33225,-9.11028 5.10369,-20.13079 l 5.03899,-20.03727 -0.62148,-1.35167 c -1.568,-3.41029 -0.74815,-9.65844 1.42013,-10.82299 l 1.13612,-0.61018 2.65791,0.68709 c 3.1444,0.81286 3.92903,1.27204 4.60853,2.69696 1.14029,2.39121 -1.56478,8.42253 -4.72069,10.5254 -0.56297,0.37512 -8.94993,38.14258 -8.94993,40.30259 0,0.13606 0.85246,0.48657 1.89434,0.77891 4.74745,1.33206 5.12826,2.85887 2.66047,10.66669 -2.87855,9.10743 -7.1098,12.35408 -13.53084,10.38228 z m 6.43651,-1.5903 c 3.11736,-1.59036 3.90982,-2.85844 6.01638,-9.62746 1.61841,-5.20039 1.7256,-6.32974 0.6983,-7.35705 -0.56053,-0.56053 -3.42827,-1.70293 -4.27484,-1.70293 -0.0871,0 -0.94839,1.47813 -1.91396,3.28473 -3.88927,7.27695 -4.09748,7.28767 -4.09748,0.21084 v -4.99462 l -1.14584,-0.32659 c -3.35111,-0.95511 -4.92895,-0.63079 -5.61491,1.15411 -0.6497,1.69055 -2.15747,11.2078 -1.98189,12.50995 0.77441,5.74326 7.33224,9.39064 12.31424,6.84902 z m -0.57614,-15.93743 1.55071,-2.90279 4.31042,-20.62506 c 5.0859,-24.33568 4.33418,-21.4454 5.83619,-22.43939 2.42094,-1.6021 4.74266,-6.80441 3.92147,-8.78691 -0.46388,-1.11993 -0.52241,-1.02173 -1.35483,2.27289 -0.64682,2.56003 -2.00358,4.65737 -3.50994,5.42586 l -1.14822,0.58578 -0.46517,-1.2861 c -0.71148,-1.96705 -0.81096,-2.95213 -0.52829,-5.2314 0.35977,-2.90101 0.55585,-3.04103 3.27814,-2.34079 1.93134,0.4968 2.25146,0.51153 2.57751,0.11866 0.85207,-1.02667 -4.54981,-2.33718 -5.79664,-1.40628 -1.49408,1.11549 -1.73944,6.34959 -0.43527,9.28543 l 0.62464,1.40614 -5.31416,21.05225 -5.31418,21.05225 -0.002,3.48844 c -0.001,1.91864 0.0472,3.43114 0.10845,3.36111 0.0612,-0.07 0.80908,-1.43356 1.66198,-3.03009 z m 11.49692,-49.29195 c 0.7468,-0.97911 1.7021,-3.24082 1.7021,-4.02977 0,-0.46569 -2.7344,-1.20515 -3.10095,-0.83859 -0.31605,0.31605 -0.40781,4.32474 -0.11978,5.23227 0.2847,0.89699 0.61777,0.81718 1.51863,-0.36391 z m 4.14655,56.93085 v -2.44444 h 1.84274 1.84275 l -0.0858,-3.74307 -0.0858,-3.74307 -1.90973,-0.091 -1.90972,-0.091 v -6.24932 -6.24932 h 1.98611 1.98612 v -4.88891 -4.8889 h -1.98612 -1.98611 v -6.25284 -6.25285 l 2.97916,-0.0874 2.97918,-0.0874 0.091,-1.90973 c 0.0901,-1.89081 0.0999,-1.90972 0.99307,-1.90972 1.24626,0 1.33932,-2.29494 0.15035,-3.70796 -3.31878,-3.94415 2.21221,-9.13592 6.09808,-5.72409 1.76858,1.55284 1.97742,4.05747 0.49542,5.94153 -1.08262,1.37633 -0.91947,3.49052 0.26936,3.49052 0.91552,0 0.91667,0.002 0.91667,1.81274 0,1.46749 0.10186,1.84036 0.53472,1.95773 0.46645,0.12646 15.37002,0.0948 24.90284,-0.0529 l 3.28473,-0.0509 v -1.83334 -1.83334 h 0.91667 c 1.25632,0 1.33277,-1.93971 0.13818,-3.50588 -3.38237,-4.43452 2.57929,-9.68144 6.43158,-5.66051 1.27685,1.33274 1.42523,3.68536 0.33326,5.28412 -1.21186,1.77429 -1.14411,3.88227 0.12478,3.88227 h 0.91667 v 1.98612 1.98611 h 2.44446 2.44444 v 6.26391 6.26391 h -1.375 -1.37501 v 4.88889 4.88891 h 1.37501 1.375 v 6.2639 6.26391 h -1.375 -1.37501 v 3.81945 3.81946 h 1.83334 1.83334 v 2.44445 2.44445 h -7.33335 -7.33336 v -2.44445 -2.44445 h 1.83334 1.83334 v -3.62498 -3.62498 l -3.13195,-0.16685 c -1.72257,-0.0918 -9.86947,-0.14491 -18.10421,-0.11809 l -14.97226,0.0487 v 3.66668 3.66667 l 1.90972,0.091 1.90973,0.091 v 2.42987 2.42987 h -7.33335 -7.33336 z m 13.44449,0 v -1.22222 h -6.11113 -6.11114 v 1.22222 1.22223 h 6.11114 6.11113 z m 43.389,0 v -1.22222 h -6.11113 -6.11112 v 1.22222 1.22223 h 6.11112 6.11113 z m -47.36124,-6.11112 v -3.66667 h -2.29167 -2.29168 v 3.66667 3.66668 h 2.29168 2.29167 z m 43.69456,0 v -3.66667 h -2.44445 -2.44445 v 3.66667 3.66668 h 2.44445 2.44445 z m -38.55103,-5.43835 c -0.056,-0.13414 -1.26228,-2.4029 -2.68059,-5.04168 l -2.57874,-4.79779 h -4.21989 -4.21989 v 5.04167 5.04169 h 6.90048 c 3.79527,0 6.85465,-0.10971 6.79863,-0.24389 z m 3.51845,-3.04084 c -0.96812,-1.8066 -2.18392,-4.04099 -2.70179,-4.96529 l -0.94157,-1.68056 -1.74542,-0.0917 c -2.26212,-0.11877 -2.39437,-0.56223 2.41925,8.11249 l 1.05969,1.90973 h 1.83503 1.83501 z m 10.53715,3.04084 c -0.056,-0.13414 -1.2623,-2.4029 -2.6806,-5.04168 l -2.57874,-4.79779 h -3.76898 -3.76898 l 1.70353,3.13195 c 0.93695,1.72258 2.13856,3.99133 2.67024,5.04168 l 0.96671,1.90973 h 3.77933 c 2.07863,0 3.7335,-0.10971 3.67749,-0.24389 z m 3.51844,-3.04084 c -0.96812,-1.8066 -2.18392,-4.04099 -2.70178,-4.96529 l -0.94158,-1.68056 -1.74542,-0.0917 c -2.28841,-0.12014 -2.51984,-0.89299 2.42941,8.11249 l 1.04954,1.90973 h 1.83502 1.83501 z m 10.53715,3.04084 c -0.056,-0.13414 -1.26228,-2.4029 -2.6806,-5.04168 l -2.57874,-4.79779 h -3.76898 -3.76897 l 1.70353,3.13195 c 0.93694,1.72258 2.13855,3.99133 2.67023,5.04168 l 0.96671,1.90973 h 3.77933 c 2.07864,0 3.73351,-0.10971 3.67749,-0.24389 z m 3.51844,-3.04084 c -0.96811,-1.8066 -2.18391,-4.04099 -2.70178,-4.96529 l -0.94158,-1.68056 -1.74542,-0.0917 c -2.2884,-0.12014 -2.51985,-0.89299 2.42941,8.11249 l 1.04954,1.90973 h 1.83502 1.83502 z m 9.67141,-1.75696 v -5.04167 h -5.96577 -5.96578 l 1.70353,3.13195 c 0.93695,1.72258 2.13854,3.99133 2.67024,5.04168 l 0.9667,1.90973 h 3.29554 3.29554 z m -46.44457,-11.1528 v -4.8889 h -2.29167 -2.29168 v 4.8889 4.88891 h 2.29168 2.29167 z m 37.58343,0 v -4.8889 H 168.24659 150.066 v 4.8889 4.88891 h 18.18059 18.18061 z m 6.11113,0 v -4.8889 h -2.44445 -2.44445 v 4.8889 4.88891 h 2.44445 2.44445 z m -38.5001,-6.28115 c 0,-0.0935 -1.1814,-2.36228 -2.62533,-5.04169 l -2.62534,-4.87165 h -4.24968 -4.24969 v 5.04168 5.04169 h 6.87501 c 3.78127,0 6.87503,-0.0766 6.87503,-0.17003 z m 5.14353,-0.0739 c -0.056,-0.13414 -1.26228,-2.4029 -2.6806,-5.04169 l -2.57874,-4.79779 h -1.77543 c -2.17397,0 -2.26738,-0.57282 0.84989,5.21172 l 2.62534,4.87165 h 1.83069 c 1.00689,0 1.78487,-0.10971 1.72885,-0.24389 z m 8.91206,0.0739 c 0,-0.0935 -1.1814,-2.36228 -2.62533,-5.04169 l -2.62533,-4.87165 h -3.76665 -3.76665 l 1.68731,3.13195 c 0.92802,1.72258 2.16115,3.99133 2.74026,5.04169 l 1.05295,1.90973 h 3.65172 c 2.00845,0 3.65172,-0.0766 3.65172,-0.17003 z m 5.14353,-0.0971 c -0.056,-0.14696 -1.26598,-2.41573 -2.6888,-5.04169 l -2.58694,-4.77449 h -1.76723 c -2.1645,0 -2.25865,-0.57185 0.8581,5.21172 l 2.62533,4.87166 h 1.83069 c 1.00689,0 1.78487,-0.12025 1.72885,-0.2672 z m 8.91207,0.0971 c 0,-0.0935 -1.1814,-2.36228 -2.62534,-5.04169 l -2.62533,-4.87165 h -3.76665 -3.76666 l 1.68732,3.13195 c 0.92802,1.72258 2.16115,3.99133 2.74026,5.04169 l 1.05294,1.90973 h 3.65174 c 2.00843,0 3.65172,-0.0766 3.65172,-0.17003 z m 5.14353,-0.0971 c -0.056,-0.14696 -1.26598,-2.41573 -2.6888,-5.04169 l -2.58695,-4.77449 h -1.76724 c -2.16449,0 -2.25865,-0.57185 0.85811,5.21172 l 2.62533,4.87166 h 1.8307 c 1.00688,0 1.78486,-0.12025 1.72885,-0.2672 z m 7.99539,-4.77449 v -5.04169 h -5.93365 -5.93366 l 1.68732,3.13196 c 0.92803,1.72257 2.16115,3.99133 2.74027,5.04168 l 1.05294,1.90974 h 3.19339 3.19339 z m -42.47233,-7.79169 v -1.22223 h -3.20835 -3.20834 v 1.22223 1.22223 h 3.20834 3.20835 z m 37.58343,0 v -1.22223 h -3.20835 -3.20833 v 1.22223 1.22223 h 3.20833 3.20835 z m -38.69456,-6.61113 c 1.56148,-1.56146 0.92659,-4.30459 -1.15529,-4.99168 -3.17702,-1.0485 -5.47954,3.2073 -2.84352,5.25573 1.07344,0.83415 3.02979,0.70498 3.99881,-0.26405 z m 37.59795,-0.13455 c 2.51142,-2.98465 -1.47398,-6.84141 -4.32235,-4.18283 -1.33232,1.24356 -1.08097,3.89907 0.45366,4.7929 1.17534,0.68458 3.02471,0.39294 3.86869,-0.61007 z"
         id="path56" />
    </g>
  </g>
</svg>
