<?xml version="1.0" encoding="UTF-8" standalone="no"?>
<!-- Created with Inkscape (http://www.inkscape.org/) -->

<svg
   width="250"
   height="250"
   viewBox="0 0 66.145833 66.145833"
   version="1.1"
   id="svg1"
   inkscape:version="1.3 (0e150ed6c4, 2023-07-21)"
   sodipodi:docname="software.svg"
   xmlns:inkscape="http://www.inkscape.org/namespaces/inkscape"
   xmlns:sodipodi="http://sodipodi.sourceforge.net/DTD/sodipodi-0.dtd"
   xmlns="http://www.w3.org/2000/svg"
   xmlns:svg="http://www.w3.org/2000/svg">
  <sodipodi:namedview
     id="namedview1"
     pagecolor="#ffffff"
     bordercolor="#000000"
     borderopacity="0.25"
     inkscape:showpageshadow="2"
     inkscape:pageopacity="0.0"
     inkscape:pagecheckerboard="0"
     inkscape:deskcolor="#d1d1d1"
     inkscape:document-units="mm"
     inkscape:zoom="1.9578168"
     inkscape:cx="80.702137"
     inkscape:cy="133.56714"
     inkscape:window-width="1920"
     inkscape:window-height="991"
     inkscape:window-x="-9"
     inkscape:window-y="-9"
     inkscape:window-maximized="1"
     inkscape:current-layer="layer1" />
  <defs
     id="defs1" />
  <g
     inkscape:label="Capa 1"
     inkscape:groupmode="layer"
     id="layer1">
    <ellipse
       style="fill:#17b8db;fill-opacity:1;stroke:#17b8db;stroke-width:0.395439;stroke-linecap:round;stroke-linejoin:round;stroke-opacity:0"
       id="path1-2"
       cx="33.072918"
       cy="33.072918"
       rx="32.338367"
       ry="32.279392" />
    <path
       style="fill:#ffffff;fill-opacity:1;stroke-width:0.489445"
       d="m 25.532567,49.001015 c -0.136486,-0.355018 0.223988,-0.436801 1.934404,-0.438847 l 1.652621,-0.0021 v -1.743705 -1.743704 l -7.809437,-0.03525 c -8.824518,-0.03984 -8.227452,0.03374 -8.781586,-1.082753 -0.41529,-0.83676 -0.346359,-25.577045 0.07283,-26.137427 0.736062,-0.983978 -1.406202,-0.890761 20.471513,-0.890761 21.87772,0 19.735452,-0.09322 20.471518,0.890761 0.419184,0.560382 0.488124,25.300667 0.07283,26.137427 -0.554126,1.116489 0.04292,1.042875 -8.781582,1.082746 l -7.809437,0.03525 v 1.740053 1.740049 l 1.782241,0.03601 c 1.683803,0.03404 1.782236,0.05029 1.782236,0.294759 0,0.364002 -14.918637,0.480288 -15.05815,0.117379 z m 10.975209,-2.187472 v -1.746642 h -3.43486 -3.434856 v 1.746642 1.746641 h 3.434856 3.43486 z m 15.702949,-2.398727 c 0.882239,-0.237127 1.017673,-0.565907 1.017673,-2.470508 V 40.279805 H 33.072916 12.917439 v 1.664503 c 0,1.870451 0.138183,2.229317 0.947874,2.461675 0.58836,0.168838 37.718283,0.177394 38.345412,0.0089 z M 53.228398,28.949027 V 18.265153 L 52.849519,17.886964 52.470635,17.508775 H 33.072916 13.675198 l -0.37888,0.378189 -0.378879,0.378189 v 10.683874 10.683879 h 20.155477 20.155482 z m -26.140315,7.876872 c -1.50326,-0.292284 -1.187973,-2.372139 0.388428,-2.562315 1.649268,-0.198972 11.5535,-0.01122 11.915801,0.225906 0.859604,0.562558 0.680118,1.919464 -0.298594,2.257384 -0.429006,0.148121 -11.282809,0.219566 -12.005635,0.07902 z M 39.15567,36.06569 c 0.261687,-0.261214 0.261064,-0.755979 -0.0013,-1.017852 -0.181962,-0.181629 -0.87622,-0.200821 -6.184278,-0.170968 l -5.979306,0.03366 -0.19166,0.340891 c -0.171938,0.305806 -0.168806,0.375713 0.03048,0.679246 l 0.222105,0.338366 h 5.949934 c 5.236403,0 5.974583,-0.02441 6.153833,-0.203313 z M 27.264138,35.702549 c -0.149314,-0.388392 0.21436,-0.468599 2.124739,-0.468599 1.915734,0 2.380047,0.111467 2.132143,0.511859 -0.136911,0.221121 -4.171006,0.18013 -4.256882,-0.04328 z m 4.603338,-3.340852 c -0.08555,-0.08539 -0.15554,-0.396712 -0.15554,-0.69182 0,-0.77487 -0.411056,-0.949709 -1.009048,-0.429194 -0.582627,0.507144 -0.712255,0.477792 -1.59292,-0.360683 -0.880674,-0.838491 -0.915186,-0.980918 -0.372991,-1.539304 0.564272,-0.581114 0.351213,-1.093313 -0.454782,-1.093313 -0.755937,0 -0.847631,-0.146949 -0.847631,-1.358495 0,-1.211549 0.09169,-1.358503 0.847631,-1.358503 0.805995,0 1.019054,-0.51219 0.454782,-1.093305 -0.534272,-0.550228 -0.509321,-0.659988 0.346153,-1.522902 0.853453,-0.860881 0.978981,-0.889805 1.533499,-0.353325 0.58218,0.563247 1.095307,0.350576 1.095307,-0.45395 0,-0.754557 0.147221,-0.846084 1.36098,-0.846084 1.214049,0 1.360981,0.09145 1.360981,0.847081 0,0.774866 0.41106,0.949705 1.009043,0.42919 0.582631,-0.507144 0.71226,-0.477793 1.592925,0.360687 0.880673,0.838487 0.915185,0.980914 0.37299,1.539303 -0.564268,0.581115 -0.351213,1.093305 0.454779,1.093305 0.755944,0 0.84763,0.146954 0.84763,1.358503 0,1.211546 -0.09169,1.358495 -0.84763,1.358495 -0.805992,0 -1.019047,0.512199 -0.454779,1.093313 0.537459,0.553507 0.508483,0.678806 -0.353966,1.530702 -0.864495,0.853914 -0.974455,0.878816 -1.525681,0.345517 -0.58218,-0.563238 -1.095311,-0.350572 -1.095311,0.453954 0,0.754562 -0.147218,0.846085 -1.360981,0.846085 -0.643766,0 -1.110071,-0.06007 -1.20544,-0.155257 z m 2.073257,-1.083829 c 0.03814,-0.572092 0.0606,-0.601277 0.661536,-0.860217 l 0.62203,-0.26803 0.420696,0.407012 0.420687,0.407003 0.543892,-0.553175 0.543892,-0.553174 -0.399428,-0.398704 -0.399427,-0.398699 0.236621,-0.665014 0.236626,-0.665006 h 0.61766 0.617665 v -0.833891 -0.833886 l -0.593265,-0.03941 c -0.573137,-0.03811 -0.602375,-0.0605 -0.861788,-0.660334 l -0.268519,-0.620895 0.436049,-0.449067 0.436045,-0.449066 -0.543816,-0.542824 -0.543817,-0.542821 -0.449886,0.435254 -0.449887,0.435245 -0.62203,-0.26803 c -0.600931,-0.25894 -0.623374,-0.288115 -0.661536,-0.860212 l -0.03949,-0.592182 h -0.82831 -0.828307 l -0.03949,0.592182 c -0.03814,0.572097 -0.06061,0.601272 -0.66154,0.860212 l -0.62203,0.26803 -0.420688,-0.407002 -0.420692,-0.407008 -0.543896,0.553175 -0.543892,0.553178 0.399428,0.3987 0.399428,0.398699 -0.236617,0.66501 -0.236626,0.665015 h -0.617665 -0.61766 v 0.833881 0.833891 l 0.593264,0.03941 c 0.573142,0.03807 0.602371,0.06049 0.861784,0.660329 l 0.26852,0.620896 -0.407747,0.419929 -0.407751,0.419925 0.554185,0.542899 0.55419,0.542901 0.408222,-0.407478 0.408227,-0.407482 0.625023,0.269324 c 0.604278,0.260382 0.626337,0.288977 0.664533,0.861507 l 0.03949,0.592183 h 0.828307 0.828312 z m -1.905866,-1.977966 c -0.653461,-0.296318 -1.304754,-1.027538 -1.481693,-1.663541 -0.757666,-2.723363 2.626545,-4.572268 4.490447,-2.45327 1.822559,2.071993 -0.502488,5.253306 -3.008754,4.116811 z m 2.153028,-0.6993 c 0.860606,-0.57387 1.166335,-1.911328 0.635553,-2.780289 -0.799979,-1.309678 -2.852095,-1.251126 -3.532566,0.100797 -0.706467,1.403574 0.234306,2.97318 1.782034,2.97318 0.485536,0 0.797972,-0.0823 1.114979,-0.293688 z"
       id="path55" />
  </g>
</svg>
