<?xml version="1.0" encoding="UTF-8" standalone="no"?>
<!-- Created with Inkscape (http://www.inkscape.org/) -->

<svg
   width="250"
   height="250"
   viewBox="0 0 66.145833 66.145833"
   version="1.1"
   id="svg1"
   inkscape:version="1.3 (0e150ed6c4, 2023-07-21)"
   sodipodi:docname="telecom.svg"
   xmlns:inkscape="http://www.inkscape.org/namespaces/inkscape"
   xmlns:sodipodi="http://sodipodi.sourceforge.net/DTD/sodipodi-0.dtd"
   xmlns="http://www.w3.org/2000/svg"
   xmlns:svg="http://www.w3.org/2000/svg">
  <sodipodi:namedview
     id="namedview1"
     pagecolor="#ffffff"
     bordercolor="#000000"
     borderopacity="0.25"
     inkscape:showpageshadow="2"
     inkscape:pageopacity="0.0"
     inkscape:pagecheckerboard="0"
     inkscape:deskcolor="#d1d1d1"
     inkscape:document-units="mm"
     inkscape:zoom="1.9578168"
     inkscape:cx="80.446752"
     inkscape:cy="133.56715"
     inkscape:window-width="1920"
     inkscape:window-height="991"
     inkscape:window-x="-9"
     inkscape:window-y="-9"
     inkscape:window-maximized="1"
     inkscape:current-layer="layer1" />
  <defs
     id="defs1" />
  <g
     inkscape:label="Capa 1"
     inkscape:groupmode="layer"
     id="layer1">
    <g
       id="g56"
       transform="matrix(0.49550051,0,0,0.49550051,22.830241,-0.86684577)">
      <circle
         style="fill:#17b8db;fill-opacity:1;stroke:#17b8db;stroke-width:0.799999;stroke-linecap:round;stroke-linejoin:round;stroke-opacity:0"
         id="path1"
         cx="20.671373"
         cy="68.495918"
         r="65.362938" />
      <path
         style="fill:#ffffff;fill-opacity:1;stroke-width:1.19578"
         d="m -1.4548545,107.91258 c -0.665054,-0.66505 0.65725805,-1.05735 3.563986,-1.05735 h 3.067402 l 1.511305,-6.56494 c 0.83122,-3.610702 1.993848,-8.558132 2.583617,-10.994272 0.589768,-2.43615 1.2015395,-5.07003 1.3594895,-5.85308 0.243065,-1.20497 1.222872,-5.39252 5.552029,-23.72867 0.26705,-1.13106 0.9162,-3.8524 1.44256,-6.04742 l 0.95702,-3.99094 -1.39777,-1.39777 c -3.508928,-3.50894 -1.3741,-8.81233 3.54734,-8.81233 4.69373,0 6.7972,5.59822 3.35843,8.93827 l -1.09623,1.06478 3.02439,12.63679 c 1.66342,6.95023 4.03194,16.83676 5.26337,21.97006 4.27735,17.830292 5.04409,21.044202 5.22691,21.909462 0.18256,0.86402 0.20197,0.87006 2.7948,0.87006 2.46449,0 3.73321,0.43169 3.10754,1.05735 -0.27215,0.27214 -43.5940415,0.27214 -43.8661885,0 z m 28.7301585,-4.27776 -6.3328,-3.18437 -6.3225,3.18551 -6.3224845,3.18551 12.6553045,-0.001 12.65528,-0.001 z m -13.992045,-0.61712 6.403425,-3.204762 -5.126325,-2.55744 c -2.819483,-1.40659 -5.2100665,-2.47369 -5.3124245,-2.37133 -0.176353,0.17635 -2.690519,10.528572 -2.690519,11.078372 0,0.419 0.03647,0.40301 6.7258435,-2.94484 z m 21.992755,2.80928 c -0.0769,-0.21751 -0.69726,-2.77942 -1.37848,-5.69313 -0.68121,-2.913722 -1.38094,-5.290952 -1.55495,-5.282742 -0.17402,0.008 -2.52152,1.1287 -5.21668,2.48999 l -4.90029,2.47507 6.32402,3.186272 c 6.58858,3.31958 6.95609,3.4739 6.72638,2.82454 z m -8.62605,-15.185242 -5.68571,-2.84637 -5.699942,2.84491 -5.6999275,2.84491 5.6940925,2.85057 5.694087,2.85057 5.69155,-2.84911 5.69156,-2.84911 z m -12.027592,-0.94519 c 2.524692,-1.25879 4.590342,-2.36504 4.590342,-2.45833 0,-0.19964 -7.311772,-3.87284 -7.429902,-3.73255 -0.04424,0.0525 -0.318687,1.16326 -0.609954,2.46833 -0.291255,1.30508 -0.724185,3.19151 -0.962049,4.19207 -0.2378755,1.00056 -0.3754025,1.8192 -0.3056285,1.8192 0.06971,0 2.1925145,-1.02993 4.7171915,-2.28872 z m 17.245632,2.12023 c 0,-0.44972 -1.96752,-8.37384 -2.07918,-8.37384 -0.30105,0 -7.41229,3.6412 -7.41229,3.79535 0,0.17823 8.84373,4.69725 9.25418,4.72876 0.13051,0.0101 0.23729,-0.0576 0.23729,-0.15027 z m -6.63981,-7.4268 c 2.43382,-1.21923 4.42514,-2.29638 4.42514,-2.39367 0,-0.79662 -1.22441,-1.69256 -4.67974,-3.42434 l -4.02003,-2.01479 -4.35063,2.17947 c -5.768755,2.88988 -5.768911,2.89549 -0.15857,5.72178 2.30563,1.1615 4.22955,2.12003 4.27538,2.13008 0.0458,0.01 2.07462,-0.9793 4.50845,-2.19853 z m -5.74546,-8.39836 c 0.0615,-0.056 -1.0566,-0.68935 -2.4847,-1.40738 -1.428094,-0.71803 -2.669596,-1.23245 -2.758884,-1.14316 -0.180503,0.1805 -1.326247,4.86857 -1.343275,5.4963 -0.0084,0.3055 5.935929,-2.35286 6.586859,-2.94576 z m 8.72217,0.41182 c -0.39849,-1.6096 -0.7339,-2.96372 -0.74538,-3.00916 -0.012,-0.0454 -1.1924,0.5064 -2.62427,1.22634 l -2.60341,1.30896 3.31526,1.68398 c 1.82339,0.92619 3.33035,1.69128 3.34879,1.7002 0.0184,0.009 -0.29251,-1.30073 -0.69099,-2.91032 z m -4.09245,-2.68156 c 3.01205,-1.49623 3.29559,-1.80908 2.68078,-2.95785 -0.34326,-0.64139 -4.99021,-3.1402 -5.83972,-3.1402 -0.68596,0 -6.170155,2.79191 -6.170155,3.14112 0,0.15803 -0.08347,0.50496 -0.185584,0.77095 -0.160557,0.41842 5.277099,3.59593 6.271759,3.66494 0.12821,0.009 1.58752,-0.65664 3.24292,-1.47896 z m -1.01504,-8.6666 c 1.0826,-0.54266 2.01332,-1.02659 2.06825,-1.07541 0.69548,-0.61796 -0.77995,-2.77831 -2.48544,-3.63924 l -1.88561,-0.95185 -1.87461,0.94631 c -1.21392,0.61278 -1.94757,1.19981 -2.0816,1.66556 -0.11383,0.39559 -0.27458,0.96254 -0.35723,1.2599 -0.11348,0.40806 0.37764,0.81157 2.00249,1.64544 2.62827,1.34883 2.24535,1.33644 4.61375,0.14929 z m -1.02465,-7.56211 c 0.74826,-0.38174 1.24713,-0.85962 1.23854,-1.18643 -0.0273,-1.04003 -1.44422,-6.55825 -1.6637,-6.47941 -0.12112,0.0435 -0.61931,0.0791 -1.10709,0.0791 -0.8572,0 -0.91031,0.0979 -1.58701,2.92653 -0.91145,3.80987 -0.90104,3.90732 0.49649,4.6451 1.45889,0.77017 1.14626,0.76837 2.62277,0.0151 z m 1.47934,-10.24018 c 2.76226,-3.01415 -0.1402,-7.72235 -4.04027,-6.55386 -1.79,0.5363 -2.83018,1.94349 -2.83018,3.8288 0,3.77063 4.33612,5.49049 6.87045,2.72506 z m -26.3964975,12.24837 c -5.760038,-8.29732 -5.748368,-22.31968 0.02499,-30.00159 1.164542,-1.54952 1.251379,0.0385 0.108696,1.98814 -4.743426,8.09344 -4.442581,19.20985 0.744442,27.50661 0.723935,1.15796 -0.0971,1.63187 -0.878118,0.50684 z m 45.7857775,0.22684 c 0,-0.16636 0.44575,-1.05618 0.99056,-1.97739 4.32926,-7.32028 4.59228,-17.01244 0.67614,-24.91561 -1.6152,-3.25961 -1.69955,-3.53541 -1.13851,-3.72242 0.77033,-0.25677 3.83406,6.2701 4.48847,9.56207 1.32254,6.65302 0.18499,14.04829 -2.99573,19.47535 -0.96495,1.64644 -2.02093,2.47098 -2.02093,1.578 z M 3.4973305,54.573058 c -2.274269,-3.80323 -3.20849295,-9.3833 -2.333735,-13.93924 0.427263,-2.22533 2.657228,-7.12026 3.367997,-7.39301 0.905357,-0.34742 0.839697,0.21186 -0.274813,2.34044 -2.998754,5.7273 -3.063947,12.06755 -0.182045,17.70282 1.754956,3.43162 1.304782,4.43656 -0.577404,1.28899 z m 32.4836335,1.18015 c 0,-0.26447 0.3585,-1.04875 0.79665,-1.74284 3.32418,-5.26582 3.41598,-12.36041 0.23847,-18.42912 -0.61755,-1.17945 -1.03803,-2.22924 -0.93442,-2.33286 0.46536,-0.46536 1.19538,0.33798 2.25314,2.47949 3.17934,6.43675 2.77788,13.59197 -1.1106,19.79433 -0.50889,0.8117 -1.24324,0.94814 -1.24324,0.231 z M 9.9093895,51.409238 c -2.706865,-4.62084 -2.610378,-10.43872 0.2317175,-13.97186 1.395841,-1.73522 1.590513,-0.64648 0.29574,1.65394 -1.7747705,3.15323 -1.7791115,7.36765 -0.01076,10.81511 1.103868,2.15249 1.239505,2.84743 0.555736,2.84743 -0.156407,0 -0.638831,-0.60508 -1.0720485,-1.34462 z m 19.9254945,1.06606 c -0.10606,-0.17158 0.34363,-1.28248 0.99925,-2.46866 1.76574,-3.19463 1.77939,-7.41552 0.0349,-10.81553 -1.64737,-3.21083 -0.64652,-3.62195 1.07754,-0.44262 1.95073,3.59734 1.8795,8.15723 -0.18623,11.92176 -1.03715,1.89006 -1.56636,2.38616 -1.92551,1.80505 z"
         id="path53" />
    </g>
  </g>
</svg>
