<?xml version="1.0" encoding="UTF-8"?>
<svg id="Capa_1" data-name="Capa 1" xmlns="http://www.w3.org/2000/svg" viewBox="0 0 260.56 195.48">
  <defs>
    <style>
      .cls-1 {
        fill: none;
        stroke: #17b8db;
        stroke-linecap: round;
        stroke-miterlimit: 10;
        stroke-width: 3.91px;
      }
    </style>
  </defs>
  <path class="cls-1" d="M204.4,169.51H10.5c-4.72,0-8.55-3.83-8.55-8.55V10.5C1.96,5.78,5.78,1.96,10.5,1.96h213.9c4.72,0,8.55,3.83,8.55,8.55v124.16"/>
  <g>
    <g>
      <line class="cls-1" x1="97.73" y1="185.73" x2="97.73" y2="169.51"/>
      <line class="cls-1" x1="136.07" y1="185.73" x2="136.07" y2="169.51"/>
    </g>
    <line class="cls-1" x1="161.62" y1="185.73" x2="73.29" y2="185.73"/>
  </g>
  <path class="cls-1" d="M161.27,115.02l-8.26,7.39c-.14.13-.14.35,0,.47l8.26,7.39"/>
  <path class="cls-1" d="M132.08,116.1c-9.53-6.63-15.77-17.66-15.77-30.16,0-20.27,16.43-36.7,36.7-36.7s36.7,16.43,36.7,36.7-16.43,36.7-36.7,36.7"/>
  <polyline class="cls-1" points="154.76 68.02 154.76 88.37 137.28 100.04"/>
  <line class="cls-1" x1="1.96" y1="148.49" x2="106.73" y2="148.49"/>
  <g>
    <circle class="cls-1" cx="152.9" cy="86.75" r="56.34"/>
    <rect class="cls-1" x="193.66" y="155.02" width="71.29" height="18.41" rx="5.84" ry="5.84" transform="translate(183.29 -114.04) rotate(45)"/>
    <line class="cls-1" x1="204.24" y1="138.89" x2="192.8" y2="126.52"/>
  </g>
</svg>