<?xml version="1.0" encoding="UTF-8"?>
<svg id="Capa_1" data-name="Capa 1" xmlns="http://www.w3.org/2000/svg" viewBox="0 0 234.26 190.38">
  <path d="M199.91,31.26c-21.21,11.05-33.15,11.05-46.6,4.18-13.44-6.87-31.66-11.95-31.66-11.95-22.33,3.65-42.51,13.63-52.08,18.95-3.56,1.98-4.57,6.64-2.22,9.97,14.9,21.08,44.56,10.25,53.49,6.34,1.59-.7,3.42-.37,4.66.85,15.22,15.03,43.76,39.42,60.17,53.24,8.31,7,20.04,8.13,29.62,3.01,13.16-7.03,18.97-13.81,18.97-13.81-12.25-45.1-34.35-70.79-34.35-70.79Z" fill="#fff"/>
  <path d="M85.32,141.61c-3.9-3.41-9.79-3.14-13.35.62l3.97-3.95c4.02-4.39,3.87-11.16-.33-15.37-4.34-4.34-11.38-4.34-15.72,0l.73-.73c5.18-5.18,5.18-13.57,0-18.74-5.18-5.18-13.57-5.18-18.74,0l-2.35,2.34c4.08-4.08,4.08-10.69,0-14.77-4.11-4.11-10.79-4.07-14.86.09l-11.25,11.52c-3.48,3.57-4.07,9.08-1.38,13.28,7.74,12.09,24.82,36.78,45.79,55.04,4.43,3.86,11.15,3.46,15.08-.91l13.23-14.71c3.6-4,3.23-10.17-.82-13.72Z" fill="#fff"/>
  <path d="M13.02,89.3l4.31-4.04c1.13-1.06,1.37-2.77.58-4.1l-2.3-3.86c-3.73-6.26-5.12-13.64-3.81-20.81,2.34-12.74,8.44-32.49,24.25-43.25,1.44-.98,3.29-1.12,4.93-.52l39.23,14.61c2.44.91,5.13.84,7.52-.2,3.01-1.3,7.58-3.16,12.53-4.71,1.07-.34,1.06-1.85-.02-2.14-10.03-2.7-37.61-10.46-59.63-19.66-2.61-1.09-5.58-.75-7.82.96C23.21,8.88-.96,31.01.03,68.14c.16,5.97,2.01,11.77,5.31,16.76.82,1.24,1.74,2.57,2.75,3.95,1.17,1.59,3.49,1.81,4.93.46Z" fill="#fff"/>
  <path d="M184.38,122.8c-1.58,1.58-1.58,4.13,0,5.7,1.42,1.42,2.2,3.31,2.2,5.31s-.78,3.89-2.2,5.31c-2.84,2.84-7.78,2.84-10.63,0,0,0-.02,0-.03-.02-.03-.03-.05-.06-.07-.08l-44.18-44.18c-1.58-1.58-4.13-1.58-5.7,0-1.58,1.57-1.58,4.13,0,5.7l44.18,44.18c3.64,3.64,3.64,9.57,0,13.22-3.53,3.53-9.69,3.53-13.21,0l-39.9-39.9c-1.58-1.58-4.13-1.58-5.7,0s-1.58,4.13,0,5.7l34.07,34.07s0,0,0,0c3.78,3.78,3.78,9.93,0,13.71-3.78,3.78-9.93,3.78-13.71,0l-8.71-8.71s0,0,0,0c0,0,0,0,0,0l-19.35-19.35c-1.58-1.58-4.13-1.58-5.7,0-1.58,1.57-1.58,4.13,0,5.7l19.36,19.36c3.14,3.15,3.14,8.27,0,11.41-3.05,3.05-8.37,3.05-11.42,0l-13.44-13.44c-1.58-1.58-4.13-1.58-5.7,0-1.58,1.57-1.58,4.13,0,5.7l13.44,13.44c3.05,3.05,7.1,4.73,11.41,4.73s8.36-1.68,11.41-4.73c2.11-2.11,3.45-4.68,4.15-7.38,3.29,2.77,7.35,4.16,11.42,4.16,4.55,0,9.1-1.73,12.56-5.19,2.85-2.85,4.51-6.44,5.01-10.16,2.29,1.08,4.81,1.67,7.42,1.67,4.65,0,9.02-1.81,12.31-5.1,3.29-3.29,5.1-7.66,5.1-12.31,0-.67-.05-1.33-.12-1.99.15,0,.29.04.44.04,4.16,0,8.08-1.62,11.02-4.56,2.94-2.94,4.56-6.86,4.56-11.02s-1.62-8.07-4.56-11.02c-1.58-1.57-4.13-1.57-5.7,0Z" fill="#fff"/>
</svg>