<?xml version="1.0" encoding="UTF-8" standalone="no"?>
<svg
   id="Capa_1"
   data-name="Capa 1"
   viewBox="0 0 384.35 117.81"
   version="1.1"
   sodipodi:docname="logo3.svg"
   inkscape:version="1.3 (0e150ed6c4, 2023-07-21)"
   inkscape:export-filename="logo3.png"
   inkscape:export-xdpi="96"
   inkscape:export-ydpi="96"
   xmlns:inkscape="http://www.inkscape.org/namespaces/inkscape"
   xmlns:sodipodi="http://sodipodi.sourceforge.net/DTD/sodipodi-0.dtd"
   xmlns="http://www.w3.org/2000/svg"
   xmlns:svg="http://www.w3.org/2000/svg">
  <sodipodi:namedview
     id="namedview27"
     pagecolor="#ffffff"
     bordercolor="#000000"
     borderopacity="0.25"
     inkscape:showpageshadow="2"
     inkscape:pageopacity="0.0"
     inkscape:pagecheckerboard="0"
     inkscape:deskcolor="#d1d1d1"
     inkscape:zoom="1.571144"
     inkscape:cx="85.288172"
     inkscape:cy="45.508241"
     inkscape:window-width="1920"
     inkscape:window-height="991"
     inkscape:window-x="-9"
     inkscape:window-y="-9"
     inkscape:window-maximized="1"
     inkscape:current-layer="Capa_1"
     inkscape:export-bgcolor="#ffffff00"
     showguides="true">
    <sodipodi:guide
       position="187.12479,147.72451"
       orientation="1,0"
       id="guide1"
       inkscape:locked="false" />
  </sodipodi:namedview>
  <defs
     id="defs1">
    <style
       id="style1">&#10;      .cls-1 {&#10;        fill: #fff;&#10;      }&#10;&#10;      .cls-2 {&#10;        fill: #fff;&#10;      }&#10;    </style>
  </defs>
  <path
     class="cls-1"
     d="M 69.08376,18.860867 H 7.7501584 c -1.5029468,0 -2.7187058,1.374872 -2.7187058,3.074516 v 14.766339 c 0,1.699645 1.215759,3.074517 2.7187058,3.074517 H 27.862831 v 61.555281 c 0,1.69965 1.215759,3.07452 2.718705,3.07452 h 15.661273 c 1.502945,0 2.718705,-1.37487 2.718705,-3.07452 V 39.787066 h 20.112672 c 1.502947,0 2.718706,-1.374871 2.718706,-3.074517 V 21.935383 c 0,-1.699644 -1.215759,-3.074516 -2.718706,-3.074516 z"
     id="path33"
     style="fill:#24221c;fill-opacity:1;stroke:#ffffff;stroke-width:0;stroke-dasharray:none;stroke-opacity:1" />
  <g
     id="g2"
     style="fill:#24221c;fill-opacity:1;stroke:#ffffff;stroke-width:0;stroke-dasharray:none;stroke-opacity:1"
     transform="matrix(0.9572905,0,0,1.0825763,5.0314526,16.598282)">
    <path
       id="path32"
       class="cls-1"
       d="m 82.66,2.0899999 h 57.91 c 1.57336,0 2.84,1.26664 2.84,2.8399999 V 18.059999 c 0,1.57336 -1.26664,2.84 -2.84,2.84 H 82.66 c -1.57336,0 -2.84,-1.26664 -2.84,-2.84 V 4.9299998 c 0,-1.5733599 1.26664,-2.8399999 2.84,-2.8399999 z"
       style="fill:#24221c;fill-opacity:1;stroke:#ffffff;stroke-width:0;stroke-dasharray:none;stroke-opacity:1" />
    <path
       class="cls-1"
       d="M 101.66,62.36 V 50.04 h 34.73 c 1.57,0 2.84,-1.27 2.84,-2.84 V 35.21 c 0,-1.57 -1.27,-2.84 -2.84,-2.84 H 82.66 c -1.57,0 -2.84,1.27 -2.84,2.84 v 42.86 c 0,1.57 1.27,2.84 2.84,2.84 h 58.12 c 1.57,0 2.84,-1.27 2.84,-2.84 V 65.21 c 0,-1.57 -1.27,-2.84 -2.84,-2.84 h -39.12 z"
       id="path31"
       style="fill:#24221c;fill-opacity:1;stroke:#ffffff;stroke-width:0;stroke-dasharray:none;stroke-opacity:1" />
  </g>
  <path
     class="cls-1"
     d="m 206.79,76.118324 c -4.24081,5.521139 -10.78866,8.703913 -17.94919,7.63216 -9.02726,-1.364044 -16.22608,-9.710707 -17.22165,-19.951877 -1.34023,-13.727067 8.12737,-25.343109 19.98821,-25.343109 6.05008,0 11.46835,3.020387 15.15391,7.794547 l 3.95361,0.140736 9.83136,-11.118059 c 1.03388,-1.169182 1.07216,-3.06369 0.0765,-4.276175 -7.77315,-9.537497 -19.16492,-15.242673 -31.715,-14.300832 -19.50002,1.472303 -35.28572,19.248204 -36.64508,41.300283 -1.60824,26.090085 16.62814,47.817392 39.34464,47.817392 11.51621,0 21.86452,-5.58609 29.0825,-14.484873 0.986,-1.212482 0.93814,-3.096165 -0.0862,-4.265348 l -9.83137,-11.118056 c -1.12002,-1.266616 -2.93888,-1.18001 -3.97275,0.162385 z"
     id="path30"
     style="fill:#24221c;fill-opacity:1;stroke:#ffffff;stroke-width:0;stroke-dasharray:none;stroke-opacity:1" />
  <path
     class="cls-2"
     d="m 257.5264,38.358064 c -5.66717,0 -10.78867,2.60901 -14.48381,6.831057 v 0 c -1.40722,1.688818 -13.26803,15.502492 -29.48455,12.904309 -6.62445,-1.060926 -11.5162,-4.47104 -14.33063,-6.863534 v 0 c -1.95288,-1.732123 -4.40355,-2.771395 -7.07437,-2.771395 -6.3277,0 -11.45876,5.802608 -11.45876,12.958437 0,7.15583 5.13106,12.958436 11.45876,12.958436 2.67082,0 5.13106,-1.039272 7.07437,-2.771395 v 0 c 3.12077,-2.132673 7.92636,-4.741682 14.10088,-5.553616 15.83359,-2.078545 27.48382,9.320983 29.7143,11.594394 v 0 c 3.69514,4.211221 8.81664,6.831055 14.48381,6.831055 11.25773,0 20.39028,-10.327778 20.39028,-23.058874 0,-12.731096 -9.13255,-23.058874 -20.39028,-23.058874 z"
     id="path29"
     style="fill:#24221c;fill-opacity:1;stroke:#ffffff;stroke-width:0;stroke-dasharray:none;stroke-opacity:1" />
  <path
     class="cls-1"
     d="m 348.59344,18.860867 c -1.16789,0 -2.20176,0.84441 -2.57511,2.089372 L 330.23261,73.57427 h -0.43078 L 313.28857,20.906936 c -0.38292,-1.223312 -1.4168,-2.046069 -2.56555,-2.046069 h -52.99559 c 20.83064,0 37.72682,19.096643 37.72682,42.66433 0,23.567684 -16.88661,42.664333 -37.72682,42.664333 h 43.44184 c 1.51252,0 2.73784,-1.39653 2.7187,-3.107 L 303.4859,43.803423 h 0.31591 l 18.42786,58.329207 c 0.3829,1.22332 1.41679,2.04607 2.56553,2.04607 h 8.96981 c 1.13918,0 2.16346,-0.80111 2.55597,-2.0136 l 18.95434,-58.361677 h 0.31592 l -0.40206,57.279107 c -0.0102,1.71047 1.20618,3.107 2.71869,3.107 h 12.32991 c 1.50294,0 2.71869,-1.37487 2.71869,-3.07452 V 21.935383 c 0,-1.699644 -1.21575,-3.074516 -2.71869,-3.074516 z"
     id="path28"
     style="fill:#24221c;fill-opacity:1;stroke:#ffffff;stroke-width:0;stroke-dasharray:none;stroke-opacity:1" />
</svg>
