<?xml version="1.0" encoding="UTF-8" standalone="no"?>
<svg
   id="Capa_1"
   data-name="Capa 1"
   viewBox="0 0 384.35 117.81"
   version="1.1"
   sodipodi:docname="logo.svg"
   inkscape:version="1.3 (0e150ed6c4, 2023-07-21)"
   xmlns:inkscape="http://www.inkscape.org/namespaces/inkscape"
   xmlns:sodipodi="http://sodipodi.sourceforge.net/DTD/sodipodi-0.dtd"
   xmlns="http://www.w3.org/2000/svg"
   xmlns:svg="http://www.w3.org/2000/svg">
  <sodipodi:namedview
     id="namedview27"
     pagecolor="#ffffff"
     bordercolor="#000000"
     borderopacity="0.25"
     inkscape:showpageshadow="2"
     inkscape:pageopacity="0.0"
     inkscape:pagecheckerboard="0"
     inkscape:deskcolor="#d1d1d1"
     inkscape:zoom="2.2219331"
     inkscape:cx="200.05103"
     inkscape:cy="99.237912"
     inkscape:window-width="1920"
     inkscape:window-height="991"
     inkscape:window-x="-9"
     inkscape:window-y="-9"
     inkscape:window-maximized="1"
     inkscape:current-layer="Capa_1" />
  <defs
     id="defs1">
    <style
       id="style1">&#10;      .cls-1 {&#10;        fill: #fff;&#10;      }&#10;&#10;      .cls-2 {&#10;        fill: #fff;&#10;      }&#10;    </style>
  </defs>
  <path
     class="cls-1"
     d="M 66.91,8.09 H 2.84 C 1.27,8.09 0,9.36 0,10.93 v 13.64 c 0,1.57 1.27,2.84 2.84,2.84 h 21.01 v 56.86 c 0,1.57 1.27,2.84 2.84,2.84 h 16.36 c 1.57,0 2.84,-1.27 2.84,-2.84 V 27.42 H 66.9 c 1.57,0 2.84,-1.27 2.84,-2.84 V 10.93 c 0,-1.57 -1.27,-2.84 -2.84,-2.84 z"
     id="path33"
     style="fill:#868686;fill-opacity:1" />
  <g
     id="g2"
     style="fill:#868686;fill-opacity:1"
     transform="translate(0,6)">
    <path
       id="path32"
       class="cls-1"
       d="m 82.66,2.0899999 h 57.91 c 1.57336,0 2.84,1.26664 2.84,2.8399999 V 18.059999 c 0,1.57336 -1.26664,2.84 -2.84,2.84 H 82.66 c -1.57336,0 -2.84,-1.26664 -2.84,-2.84 V 4.9299998 c 0,-1.5733599 1.26664,-2.8399999 2.84,-2.8399999 z"
       style="fill:#868686;fill-opacity:1" />
    <path
       class="cls-1"
       d="M 101.66,62.36 V 50.04 h 34.73 c 1.57,0 2.84,-1.27 2.84,-2.84 V 35.21 c 0,-1.57 -1.27,-2.84 -2.84,-2.84 H 82.66 c -1.57,0 -2.84,1.27 -2.84,2.84 v 42.86 c 0,1.57 1.27,2.84 2.84,2.84 h 58.12 c 1.57,0 2.84,-1.27 2.84,-2.84 V 65.21 c 0,-1.57 -1.27,-2.84 -2.84,-2.84 h -39.12 z"
       id="path31"
       style="fill:#868686;fill-opacity:1" />
  </g>
  <path
     class="cls-1"
     d="m 210.76,60.98 c -4.43,5.1 -11.27,8.04 -18.75,7.05 -9.43,-1.26 -16.95,-8.97 -17.99,-18.43 -1.4,-12.68 8.49,-23.41 20.88,-23.41 6.32,0 11.98,2.79 15.83,7.2 l 4.13,0.13 10.27,-10.27 c 1.08,-1.08 1.12,-2.83 0.08,-3.95 -8.12,-8.81 -20.02,-14.08 -33.13,-13.21 -20.37,1.36 -36.86,17.78 -38.28,38.15 -1.68,24.1 17.37,44.17 41.1,44.17 12.03,0 22.84,-5.16 30.38,-13.38 1.03,-1.12 0.98,-2.86 -0.09,-3.94 L 214.92,60.82 c -1.17,-1.17 -3.07,-1.09 -4.15,0.15 z"
     id="path30"
     style="fill:#868686;fill-opacity:1" />
  <path
     class="cls-2"
     d="m 263.76,26.1 c -5.92,0 -11.27,2.41 -15.13,6.31 v 0 c -1.47,1.56 -13.86,14.32 -30.8,11.92 -6.92,-0.98 -12.03,-4.13 -14.97,-6.34 v 0 c -2.04,-1.6 -4.6,-2.56 -7.39,-2.56 -6.61,0 -11.97,5.36 -11.97,11.97 0,6.61 5.36,11.97 11.97,11.97 2.79,0 5.36,-0.96 7.39,-2.56 v 0 c 3.26,-1.97 8.28,-4.38 14.73,-5.13 16.54,-1.92 28.71,8.61 31.04,10.71 v 0 c 3.86,3.89 9.21,6.31 15.13,6.31 11.76,0 21.3,-9.54 21.3,-21.3 0,-11.76 -9.54,-21.3 -21.3,-21.3 z"
     id="path29"
     style="fill:#17b8db;fill-opacity:1" />
  <path
     class="cls-1"
     d="m 358.89,8.09 c -1.22,0 -2.3,0.78 -2.69,1.93 l -16.49,48.61 h -0.45 L 322.01,9.98 c -0.4,-1.13 -1.48,-1.89 -2.68,-1.89 h -55.36 c 21.76,0 39.41,17.64 39.41,39.41 0,21.77 -17.64,39.41 -39.41,39.41 h 45.38 c 1.58,0 2.86,-1.29 2.84,-2.87 l -0.42,-52.91 h 0.33 l 19.25,53.88 c 0.4,1.13 1.48,1.89 2.68,1.89 h 9.37 c 1.19,0 2.26,-0.74 2.67,-1.86 l 19.8,-53.91 h 0.33 l -0.42,52.91 c -0.01,1.58 1.26,2.87 2.84,2.87 h 12.88 c 1.57,0 2.84,-1.27 2.84,-2.84 V 10.93 c 0,-1.57 -1.27,-2.84 -2.84,-2.84 z"
     id="path28"
     style="fill:#868686;fill-opacity:1" />
  <g
     id="g27"
     style="fill:#868686;fill-opacity:1">
    <path
       d="m 28.24024,108.96878 q 0,1.08181 -0.411338,1.92586 -0.399241,0.84404 -1.125133,1.43844 -0.713794,0.58251 -1.693747,0.87971 -0.967855,0.2972 -2.092988,0.2972 -0.786383,0 -1.463882,-0.13077 -0.6654,-0.13076 -1.197721,-0.32098 -0.520223,-0.1902 -0.883168,-0.39229 -0.350848,-0.2021 -0.496026,-0.34476 -0.13308,-0.14265 -0.20567,-0.35664 -0.06049,-0.22587 -0.06049,-0.5944 0,-0.26153 0.02419,-0.42796 0.0242,-0.17832 0.07259,-0.28532 0.04839,-0.10699 0.120982,-0.14265 0.07259,-0.0476 0.169374,-0.0476 0.169375,0 0.471831,0.2021 0.314552,0.20209 0.79848,0.43985 0.483928,0.23776 1.161427,0.45174 0.689597,0.2021 1.584863,0.2021 0.677499,0 1.234016,-0.17832 0.568616,-0.17832 0.967856,-0.4993 0.411339,-0.33287 0.629106,-0.80838 0.217768,-0.47552 0.217768,-1.08181 0,-0.65383 -0.302455,-1.11747 -0.302455,-0.46363 -0.798481,-0.80838 -0.496026,-0.35663 -1.137231,-0.64195 -0.629105,-0.2972 -1.294506,-0.5944 -0.665401,-0.30909 -1.294507,-0.67761 -0.629106,-0.36853 -1.125132,-0.86783 -0.496026,-0.49929 -0.810579,-1.16502 -0.302456,-0.67761 -0.302456,-1.61676 0,-0.96293 0.350848,-1.711873 0.362946,-0.76083 0.992053,-1.272013 0.641204,-0.511183 1.512274,-0.772718 0.883168,-0.273424 1.899416,-0.273424 0.520222,0 1.040445,0.0951 0.532321,0.08322 0.992053,0.23776 0.471829,0.142655 0.834775,0.332862 0.362946,0.178321 0.471829,0.2972 0.120983,0.106992 0.157277,0.17832 0.0363,0.05944 0.06049,0.166432 0.02419,0.0951 0.0363,0.23776 0.01209,0.142655 0.01209,0.368526 0,0.213984 -0.02419,0.380416 -0.01209,0.166432 -0.04839,0.285312 -0.0363,0.10699 -0.108884,0.16643 -0.06049,0.0475 -0.145179,0.0475 -0.13308,0 -0.423437,-0.16643 -0.278258,-0.16643 -0.689596,-0.368529 -0.41134,-0.213984 -0.979954,-0.380416 -0.556517,-0.178319 -1.258212,-0.178319 -0.653303,0 -1.137231,0.178319 -0.483928,0.166432 -0.798481,0.451745 -0.314553,0.28531 -0.47183,0.67761 -0.157276,0.39231 -0.157276,0.83216 0,0.64195 0.302454,1.10558 0.302455,0.46364 0.798482,0.82028 0.508124,0.35663 1.149328,0.65384 0.641205,0.2972 1.306605,0.60629 0.665402,0.29719 1.306606,0.66572 0.641204,0.35664 1.13723,0.85593 0.508124,0.48741 0.810579,1.16503 0.314553,0.66573 0.314553,1.5811 z m 18.473945,-1.45033 q 0,1.30768 -0.350848,2.41326 -0.350848,1.09369 -1.052543,1.89019 -0.689597,0.79649 -1.742139,1.24824 -1.040445,0.43985 -2.41964,0.43985 -1.342899,0 -2.34705,-0.3923 -0.992052,-0.39231 -1.657452,-1.14125 -0.665402,-0.74894 -0.992053,-1.81886 -0.326651,-1.06991 -0.326651,-2.42514 0,-1.30768 0.338749,-2.40138 0.350848,-1.10558 1.040445,-1.90208 0.701695,-0.79649 1.74214,-1.23635 1.040445,-0.43985 2.431738,-0.43985 1.3429,0 2.334951,0.3923 1.004151,0.39231 1.669552,1.14125 0.6654,0.74894 0.992051,1.81886 0.33875,1.06991 0.33875,2.41326 z m -2.105087,0.13077 q 0,-0.86782 -0.169374,-1.64054 -0.157276,-0.77273 -0.532321,-1.35523 -0.375043,-0.58252 -1.016248,-0.91538 -0.641204,-0.34475 -1.596961,-0.34475 -0.883169,0 -1.524373,0.30909 -0.629107,0.30908 -1.040445,0.87971 -0.411338,0.55873 -0.617008,1.33145 -0.193571,0.77272 -0.193571,1.6881 0,0.8797 0.157276,1.65242 0.169375,0.77272 0.544419,1.35523 0.387142,0.57063 1.028346,0.91537 0.641205,0.33287 1.596962,0.33287 0.87107,0 1.512275,-0.30909 0.641205,-0.30909 1.052543,-0.86782 0.411338,-0.55874 0.604909,-1.33146 0.193571,-0.77271 0.193571,-1.69997 z m 12.642614,5.3377 q 0,0.0951 -0.04839,0.16643 -0.04839,0.0595 -0.157276,0.10699 -0.108883,0.0476 -0.302455,0.0714 -0.193571,0.0238 -0.496026,0.0238 -0.290356,0 -0.483927,-0.0238 -0.193571,-0.0238 -0.314554,-0.0714 -0.108883,-0.0476 -0.157276,-0.10699 -0.0363,-0.0714 -0.0363,-0.16643 V 97.104579 q 0,-0.0951 0.0363,-0.166432 0.04839,-0.07132 0.157276,-0.11888 0.120983,-0.04755 0.314554,-0.07133 0.193571,-0.02377 0.483927,-0.02377 0.302455,0 0.496026,0.02377 0.193572,0.02378 0.302455,0.07133 0.108884,0.04755 0.157276,0.11888 0.04839,0.07133 0.04839,0.166432 z m 18.619123,0 q 0,0.0951 -0.04839,0.16643 -0.0363,0.0595 -0.145178,0.10699 -0.108884,0.0476 -0.290357,0.0714 -0.169375,0.0238 -0.423437,0.0238 -0.278259,0 -0.459731,-0.0238 -0.169375,-0.0238 -0.278258,-0.0714 -0.09678,-0.0476 -0.133081,-0.10699 -0.0363,-0.0714 -0.0363,-0.16643 v -1.41468 q -0.931561,1.01049 -1.838926,1.47412 -0.907364,0.46363 -1.838926,0.46363 -1.088837,0 -1.838926,-0.35664 -0.737989,-0.35663 -1.197721,-0.96293 -0.459732,-0.61818 -0.6654,-1.42655 -0.193572,-0.82027 -0.193572,-1.98529 v -6.49084 q 0,-0.0951 0.0363,-0.15455 0.04839,-0.0713 0.169375,-0.11888 0.120982,-0.0594 0.314553,-0.0713 0.193571,-0.0238 0.483929,-0.0238 0.290356,0 0.483928,0.0238 0.193571,0.0119 0.302454,0.0713 0.120982,0.0476 0.169375,0.11888 0.04839,0.0594 0.04839,0.15455 v 6.2293 q 0,0.93915 0.133079,1.50977 0.145179,0.55874 0.423437,0.96293 0.290357,0.3923 0.725892,0.61817 0.435536,0.21399 1.016249,0.21399 0.750087,0 1.488078,-0.52308 0.750088,-0.52306 1.584864,-1.53354 v -7.47754 q 0,-0.0951 0.0363,-0.15455 0.04839,-0.0713 0.169375,-0.11888 0.120982,-0.0594 0.302454,-0.0713 0.193572,-0.0238 0.496027,-0.0238 0.290356,0 0.483927,0.0238 0.193572,0.0119 0.302456,0.0713 0.108883,0.0476 0.157276,0.11888 0.06049,0.0594 0.06049,0.15455 z m 17.118948,-1.62865 q 0,0.20209 -0.0121,0.35664 -0.0121,0.14265 -0.04839,0.24964 -0.0242,0.0951 -0.07259,0.17832 -0.0363,0.0714 -0.193571,0.22587 -0.145179,0.14266 -0.508124,0.36853 -0.362946,0.21398 -0.822677,0.39231 -0.447633,0.16643 -0.979954,0.27342 -0.53232,0.10699 -1.100936,0.10699 -1.173525,0 -2.08089,-0.38041 -0.907365,-0.38042 -1.524373,-1.10559 -0.604909,-0.73705 -0.93156,-1.79508 -0.314553,-1.06992 -0.314553,-2.46082 0,-1.58109 0.387142,-2.71045 0.39924,-1.14125 1.07674,-1.86642 0.689596,-0.72516 1.609059,-1.06991 0.931561,-0.35664 2.008301,-0.35664 0.520222,0 1.00415,0.0951 0.496026,0.0951 0.907365,0.24965 0.411338,0.15454 0.725892,0.35663 0.326651,0.2021 0.471829,0.34476 0.145179,0.14265 0.193571,0.22587 0.06049,0.0832 0.09678,0.20209 0.0363,0.10699 0.04839,0.24965 0.0121,0.14266 0.0121,0.35664 0,0.46363 -0.108883,0.65384 -0.108884,0.17832 -0.26616,0.17832 -0.181474,0 -0.423437,-0.19021 -0.229866,-0.20209 -0.592812,-0.43985 -0.362946,-0.23776 -0.883169,-0.42797 -0.508123,-0.2021 -1.209818,-0.2021 -1.439686,0 -2.213971,1.0937 -0.762185,1.0818 -0.762185,3.15031 0,1.03426 0.193571,1.81886 0.205668,0.77272 0.592811,1.29579 0.387142,0.52307 0.943659,0.78461 0.568616,0.24965 1.294507,0.24965 0.689597,0 1.20982,-0.21399 0.520222,-0.21398 0.895266,-0.46363 0.387142,-0.26153 0.641205,-0.46362 0.266159,-0.21399 0.411338,-0.21399 0.08469,0 0.145178,0.0476 0.06049,0.0476 0.09678,0.16644 0.04839,0.10698 0.06049,0.2853 0.02419,0.16644 0.02419,0.4042 z m 10.247167,1.62865 q 0,0.0951 -0.0484,0.16643 -0.0484,0.0595 -0.15727,0.10699 -0.10889,0.0476 -0.30246,0.0714 -0.19357,0.0238 -0.49603,0.0238 -0.29035,0 -0.48392,-0.0238 -0.19357,-0.0238 -0.31456,-0.0714 -0.10888,-0.0476 -0.15728,-0.10699 -0.0363,-0.0714 -0.0363,-0.16643 v -10.69918 q 0,-0.0832 0.0363,-0.15455 0.0484,-0.0713 0.15728,-0.11888 0.12099,-0.0476 0.31456,-0.0713 0.19357,-0.0238 0.48392,-0.0238 0.30246,0 0.49603,0.0238 0.19357,0.0238 0.30246,0.0713 0.10888,0.0476 0.15727,0.11888 0.0484,0.0713 0.0484,0.15455 z m 0.22987,-14.313128 q 0,0.689502 -0.26616,0.93915 -0.26616,0.249648 -0.97995,0.249648 -0.7017,0 -0.96786,-0.23776 -0.25407,-0.249647 -0.25407,-0.927262 0,-0.689503 0.26617,-0.93915 0.26616,-0.249648 0.97996,-0.249648 0.70169,0 0.95575,0.249648 0.26616,0.237759 0.26616,0.915374 z m 19.18773,8.844658 q 0,1.30768 -0.35084,2.41326 -0.35085,1.09369 -1.05254,1.89019 -0.6896,0.79649 -1.74215,1.24824 -1.04044,0.43985 -2.41964,0.43985 -1.3429,0 -2.34704,-0.3923 -0.99206,-0.39231 -1.65745,-1.14125 -0.66541,-0.74894 -0.99206,-1.81886 -0.32665,-1.06991 -0.32665,-2.42514 0,-1.30768 0.33875,-2.40138 0.35085,-1.10558 1.04045,-1.90208 0.70169,-0.79649 1.74214,-1.23635 1.04044,-0.43985 2.43173,-0.43985 1.3429,0 2.33495,0.3923 1.00415,0.3923 1.66955,1.14125 0.66541,0.74894 0.99206,1.81886 0.33874,1.06991 0.33874,2.41326 z m -2.10508,0.13077 q 0,-0.86782 -0.16937,-1.64054 -0.15728,-0.77273 -0.53233,-1.35523 -0.37504,-0.58252 -1.01625,-0.91538 -0.6412,-0.34475 -1.59695,-0.34475 -0.88318,0 -1.52437,0.30909 -0.62911,0.30908 -1.04045,0.87971 -0.41134,0.55873 -0.61701,1.33145 -0.19358,0.77272 -0.19358,1.6881 0,0.8797 0.15729,1.65242 0.16936,0.77272 0.54442,1.35523 0.38713,0.57063 1.02834,0.91537 0.64121,0.33287 1.59697,0.33287 0.87107,0 1.51226,-0.30909 0.64121,-0.30909 1.05255,-0.86782 0.41133,-0.55874 0.6049,-1.33146 0.19358,-0.77271 0.19358,-1.69997 z m 20.02251,5.3377 q 0,0.0951 -0.0484,0.16643 -0.0484,0.0595 -0.15728,0.10699 -0.10888,0.0476 -0.30245,0.0714 -0.19357,0.0238 -0.48393,0.0238 -0.30246,0 -0.49603,-0.0238 -0.19357,-0.0238 -0.30246,-0.0714 -0.10888,-0.0476 -0.15727,-0.10699 -0.0484,-0.0714 -0.0484,-0.16643 v -6.26497 q 0,-0.91537 -0.14518,-1.4741 -0.14517,-0.55874 -0.42343,-0.96293 -0.27826,-0.40419 -0.7259,-0.61818 -0.43554,-0.21398 -1.01624,-0.21398 -0.75009,0 -1.50018,0.52307 -0.75009,0.52307 -1.57277,1.53355 v 7.47754 q 0,0.0951 -0.0484,0.16643 -0.0484,0.0595 -0.15727,0.10699 -0.10889,0.0476 -0.30246,0.0714 -0.19357,0.0238 -0.49603,0.0238 -0.29035,0 -0.48392,-0.0238 -0.19357,-0.0238 -0.31456,-0.0714 -0.10888,-0.0476 -0.15727,-0.10699 -0.0363,-0.0714 -0.0363,-0.16643 v -10.69918 q 0,-0.0951 0.0363,-0.15455 0.0363,-0.0713 0.14518,-0.11888 0.10888,-0.0594 0.27825,-0.0713 0.16937,-0.0238 0.44763,-0.0238 0.26616,0 0.43554,0.0238 0.18147,0.0119 0.27826,0.0713 0.0967,0.0476 0.13308,0.11888 0.0484,0.0594 0.0484,0.15455 v 1.41467 q 0.91947,-1.01048 1.82683,-1.47411 0.91947,-0.47552 1.85103,-0.47552 1.08883,0 1.82682,0.36853 0.75009,0.35664 1.20982,0.96292 0.45974,0.60629 0.6533,1.42656 0.20567,0.80838 0.20567,1.94963 z m 18.53444,-5.81323 q 0,0.46364 -0.24196,0.66573 -0.22987,0.19021 -0.53233,0.19021 h -7.13793 q 0,0.8916 0.18147,1.60488 0.18148,0.71327 0.60492,1.22446 0.42344,0.51118 1.10093,0.78461 0.6775,0.27342 1.65745,0.27342 0.77429,0 1.3792,-0.11888 0.60491,-0.13076 1.04044,-0.28531 0.44764,-0.15454 0.7259,-0.27343 0.29035,-0.13076 0.43553,-0.13076 0.0847,0 0.14518,0.0476 0.0726,0.0357 0.10889,0.11888 0.0363,0.0833 0.0484,0.23776 0.0242,0.14265 0.0242,0.35664 0,0.15454 -0.0121,0.27342 -0.0121,0.10699 -0.0363,0.2021 -0.0121,0.0832 -0.0605,0.15454 -0.0363,0.0714 -0.10888,0.14266 -0.0605,0.0595 -0.38715,0.21398 -0.32665,0.14266 -0.84687,0.28531 -0.52023,0.14265 -1.20982,0.24965 -0.6775,0.11888 -1.45178,0.11888 -1.3429,0 -2.35915,-0.36853 -1.00415,-0.36853 -1.69375,-1.09369 -0.6896,-0.72517 -1.04045,-1.81886 -0.35084,-1.09369 -0.35084,-2.54403 0,-1.37901 0.36295,-2.4727 0.36294,-1.10558 1.04044,-1.86641 0.68959,-0.77272 1.65745,-1.17691 0.96785,-0.41608 2.16558,-0.41608 1.28241,0 2.17768,0.40419 0.90736,0.40419 1.48807,1.09369 0.58071,0.67762 0.84687,1.60488 0.27826,0.91537 0.27826,1.96151 z m -2.00829,-0.58251 q 0.0363,-1.54543 -0.70171,-2.42514 -0.72588,-0.87971 -2.16557,-0.87971 -0.73799,0 -1.29451,0.27342 -0.55652,0.27342 -0.93156,0.72517 -0.37504,0.45174 -0.58072,1.05803 -0.20566,0.5944 -0.22986,1.24823 z m 17.48188,3.48318 q 0,0.82028 -0.31455,1.46223 -0.30245,0.64195 -0.87107,1.0818 -0.56861,0.43985 -1.355,0.66572 -0.78638,0.22588 -1.73004,0.22588 -0.58071,0 -1.11304,-0.0951 -0.52021,-0.0833 -0.94365,-0.21398 -0.41134,-0.14266 -0.7017,-0.28531 -0.29036,-0.15454 -0.42344,-0.27342 -0.13308,-0.11888 -0.19357,-0.33286 -0.0605,-0.21399 -0.0605,-0.58252 0,-0.22587 0.0242,-0.38041 0.0242,-0.15455 0.0605,-0.24965 0.0363,-0.0951 0.0968,-0.13077 0.0726,-0.0476 0.15727,-0.0476 0.13308,0 0.38715,0.16643 0.26615,0.15454 0.64119,0.34475 0.38715,0.19022 0.90737,0.35664 0.52022,0.15455 1.19772,0.15455 0.50813,0 0.91947,-0.107 0.41134,-0.10699 0.7138,-0.30909 0.30244,-0.21397 0.45973,-0.53495 0.16936,-0.32097 0.16936,-0.76083 0,-0.45174 -0.24196,-0.76083 -0.22986,-0.30909 -0.617,-0.54685 -0.38715,-0.23776 -0.87107,-0.41608 -0.48393,-0.1902 -1.00415,-0.3923 -0.50813,-0.20209 -1.00416,-0.45175 -0.48392,-0.26153 -0.87107,-0.63006 -0.38713,-0.36853 -0.6291,-0.87971 -0.22986,-0.51119 -0.22986,-1.22446 0,-0.63006 0.24196,-1.20069 0.25406,-0.58251 0.75008,-1.01048 0.49603,-0.43985 1.23402,-0.70139 0.75009,-0.26153 1.74214,-0.26153 0.43553,0 0.87108,0.0713 0.43553,0.0713 0.78638,0.17832 0.35084,0.10699 0.59281,0.23776 0.25406,0.11888 0.37504,0.21398 0.13308,0.0951 0.16937,0.16643 0.0484,0.0713 0.0605,0.16643 0.0242,0.0832 0.0363,0.21399 0.0242,0.13077 0.0242,0.32097 0,0.2021 -0.0242,0.35664 -0.0121,0.14266 -0.0605,0.23776 -0.0363,0.0951 -0.0967,0.14266 -0.0605,0.0357 -0.13308,0.0357 -0.10888,0 -0.31455,-0.13077 -0.20567,-0.13077 -0.53232,-0.27343 -0.32665,-0.15454 -0.77428,-0.28531 -0.43553,-0.13077 -1.00416,-0.13077 -0.50812,0 -0.89526,0.11888 -0.38715,0.10699 -0.6412,0.32098 -0.24196,0.20209 -0.37505,0.48741 -0.12098,0.28531 -0.12098,0.61817 0,0.46364 0.24196,0.78461 0.24197,0.30908 0.62911,0.54685 0.38714,0.23776 0.88317,0.42796 0.49602,0.19021 1.00415,0.39231 0.52022,0.20209 1.01625,0.45174 0.50812,0.24964 0.89526,0.60628 0.38715,0.35665 0.61701,0.85594 0.24196,0.4993 0.24196,1.1888 z m 29.70107,-11.293576 q 0,0.225871 -0.0242,0.392303 -0.0242,0.166432 -0.0846,0.273424 -0.0484,0.0951 -0.13308,0.142655 -0.0726,0.04755 -0.16938,0.04755 h -4.40373 v 13.338304 q 0,0.0952 -0.0484,0.16644 -0.0484,0.0714 -0.16938,0.11888 -0.12099,0.0357 -0.32665,0.0595 -0.19357,0.0357 -0.49603,0.0357 -0.29035,0 -0.49603,-0.0357 -0.20566,-0.0238 -0.32665,-0.0595 -0.12098,-0.0476 -0.16937,-0.11888 -0.0484,-0.0714 -0.0484,-0.16644 V 99.636719 h -4.40374 q -0.0967,0 -0.18147,-0.04755 -0.0726,-0.04755 -0.12099,-0.142655 -0.0484,-0.106992 -0.0847,-0.273424 -0.0242,-0.166432 -0.0242,-0.392303 0,-0.225871 0.0242,-0.392303 0.0363,-0.178321 0.0847,-0.285312 0.0484,-0.106992 0.12099,-0.154543 0.0847,-0.04755 0.18147,-0.04755 h 10.88837 q 0.0967,0 0.16938,0.04755 0.0847,0.04755 0.13308,0.154543 0.0605,0.106991 0.0846,0.285312 0.0242,0.166432 0.0242,0.392303 z m 16.92537,8.392906 q 0,0.46364 -0.24196,0.66573 -0.22986,0.19021 -0.53231,0.19021 h -7.13794 q 0,0.8916 0.18148,1.60488 0.18146,0.71327 0.6049,1.22446 0.42344,0.51118 1.10094,0.78461 0.67749,0.27342 1.65745,0.27342 0.77428,0 1.3792,-0.11888 0.60491,-0.13076 1.04044,-0.28531 0.44763,-0.15454 0.72589,-0.27343 0.29036,-0.13076 0.43553,-0.13076 0.0846,0 0.14518,0.0476 0.0726,0.0357 0.10889,0.11888 0.0363,0.0833 0.0484,0.23776 0.0242,0.14265 0.0242,0.35664 0,0.15454 -0.0121,0.27342 -0.0121,0.10699 -0.0363,0.2021 -0.0121,0.0832 -0.0605,0.15454 -0.0363,0.0714 -0.10888,0.14266 -0.0605,0.0595 -0.38715,0.21398 -0.32665,0.14266 -0.84687,0.28531 -0.52021,0.14265 -1.20981,0.24965 -0.6775,0.11888 -1.45179,0.11888 -1.3429,0 -2.35915,-0.36853 -1.00415,-0.36853 -1.69375,-1.09369 -0.68959,-0.72517 -1.04043,-1.81886 -0.35086,-1.09369 -0.35086,-2.54403 0,-1.37901 0.36295,-2.4727 0.36295,-1.10558 1.04044,-1.86641 0.6896,-0.77272 1.65745,-1.17691 0.96786,-0.41608 2.16558,-0.41608 1.28241,0 2.17768,0.40419 0.90736,0.40419 1.48808,1.09369 0.58071,0.67762 0.84687,1.60488 0.27825,0.91537 0.27825,1.96151 z m -2.00829,-0.58251 q 0.0363,-1.54543 -0.70169,-2.42514 -0.7259,-0.87971 -2.16558,-0.87971 -0.73799,0 -1.29452,0.27342 -0.55651,0.27342 -0.93155,0.72517 -0.37505,0.45174 -0.58071,1.05803 -0.20568,0.5944 -0.22987,1.24823 z m 18.47394,4.76709 q 0,0.20209 -0.0121,0.35664 -0.0121,0.14265 -0.0484,0.24964 -0.0242,0.0951 -0.0725,0.17832 -0.0363,0.0714 -0.19357,0.22587 -0.14517,0.14266 -0.50812,0.36853 -0.36295,0.21398 -0.82268,0.39231 -0.44764,0.16643 -0.97996,0.27342 -0.53232,0.10699 -1.10093,0.10699 -1.17353,0 -2.08089,-0.38041 -0.90736,-0.38042 -1.52438,-1.10559 -0.6049,-0.73705 -0.93156,-1.79508 -0.31455,-1.06992 -0.31455,-2.46082 0,-1.58109 0.38715,-2.71045 0.39923,-1.14125 1.07673,-1.86642 0.6896,-0.72516 1.60906,-1.06991 0.93156,-0.35664 2.00831,-0.35664 0.52022,0 1.00414,0.0951 0.49603,0.0951 0.90737,0.24964 0.41134,0.15455 0.72589,0.35664 0.32665,0.2021 0.47183,0.34476 0.14518,0.14265 0.19357,0.22587 0.0605,0.0832 0.0967,0.20209 0.0363,0.10699 0.0484,0.24965 0.0121,0.14266 0.0121,0.35664 0,0.46363 -0.10889,0.65384 -0.10888,0.17832 -0.26615,0.17832 -0.18147,0 -0.42345,-0.19021 -0.22986,-0.20209 -0.59281,-0.43985 -0.36294,-0.23776 -0.88317,-0.42797 -0.50812,-0.2021 -1.20981,-0.2021 -1.43968,0 -2.21397,1.0937 -0.76219,1.0818 -0.76219,3.15031 0,1.03426 0.19358,1.81886 0.20566,0.77272 0.5928,1.29579 0.38715,0.52307 0.94366,0.78461 0.56862,0.24965 1.29451,0.24965 0.6896,0 1.20982,-0.21399 0.52023,-0.21398 0.89527,-0.46363 0.38714,-0.26153 0.6412,-0.46362 0.26617,-0.21399 0.41134,-0.21399 0.0846,0 0.14518,0.0476 0.0605,0.0476 0.0967,0.16644 0.0484,0.10698 0.0605,0.2853 0.0242,0.16644 0.0242,0.4042 z m 17.62708,1.62865 q 0,0.0951 -0.0484,0.16643 -0.0484,0.0595 -0.15728,0.10699 -0.10888,0.0476 -0.30245,0.0714 -0.19358,0.0238 -0.48393,0.0238 -0.30246,0 -0.49603,-0.0238 -0.19357,-0.0238 -0.30245,-0.0714 -0.10889,-0.0476 -0.15728,-0.10699 -0.0484,-0.0714 -0.0484,-0.16643 v -6.26497 q 0,-0.91537 -0.14518,-1.4741 -0.14518,-0.55874 -0.42343,-0.96293 -0.27826,-0.40419 -0.7259,-0.61818 -0.43553,-0.21398 -1.01625,-0.21398 -0.75008,0 -1.50018,0.52307 -0.75008,0.52307 -1.57276,1.53355 v 7.47754 q 0,0.0951 -0.0484,0.16643 -0.0484,0.0595 -0.15728,0.10699 -0.10889,0.0476 -0.30245,0.0714 -0.19357,0.0238 -0.49602,0.0238 -0.29037,0 -0.48394,-0.0238 -0.19356,-0.0238 -0.31455,-0.0714 -0.10888,-0.0476 -0.15727,-0.10699 -0.0363,-0.0714 -0.0363,-0.16643 v -10.69918 q 0,-0.0951 0.0363,-0.15455 0.0363,-0.0713 0.14517,-0.11888 0.10888,-0.0594 0.27826,-0.0713 0.16938,-0.0238 0.44764,-0.0238 0.26615,0 0.43553,0.0238 0.18147,0.0119 0.27826,0.0713 0.0967,0.0476 0.13308,0.11888 0.0484,0.0594 0.0484,0.15455 v 1.41467 q 0.91946,-1.01048 1.82683,-1.47411 0.91946,-0.47552 1.85102,-0.47552 1.08884,0 1.82683,0.36853 0.75009,0.35664 1.20982,0.96292 0.45973,0.60629 0.6533,1.42656 0.20568,0.80838 0.20568,1.94963 z m 19.3692,-5.46847 q 0,1.30768 -0.35085,2.41326 -0.35084,1.09369 -1.05254,1.89019 -0.6896,0.79649 -1.74214,1.24824 -1.04044,0.43985 -2.41964,0.43985 -1.3429,0 -2.34705,-0.3923 -0.99206,-0.39231 -1.65745,-1.14125 -0.6654,-0.74894 -0.99205,-1.81886 -0.32666,-1.06991 -0.32666,-2.42514 0,-1.30768 0.33876,-2.40138 0.35084,-1.10558 1.04044,-1.90208 0.7017,-0.79649 1.74214,-1.23635 1.04045,-0.43985 2.43174,-0.43985 1.3429,0 2.33495,0.3923 1.00414,0.3923 1.66955,1.14125 0.6654,0.74894 0.99205,1.81886 0.33875,1.06991 0.33875,2.41326 z m -2.10509,0.13077 q 0,-0.86782 -0.16937,-1.64054 -0.15728,-0.77273 -0.53232,-1.35523 -0.37504,-0.58252 -1.01625,-0.91538 -0.6412,-0.34475 -1.59696,-0.34475 -0.88317,0 -1.52437,0.30909 -0.62911,0.30908 -1.04045,0.87971 -0.41133,0.55873 -0.61701,1.33145 -0.19357,0.77272 -0.19357,1.6881 0,0.8797 0.15728,1.65242 0.16937,0.77272 0.54442,1.35523 0.38714,0.57063 1.02834,0.91537 0.64121,0.33287 1.59697,0.33287 0.87107,0 1.51227,-0.30909 0.64121,-0.30909 1.05255,-0.86782 0.41134,-0.55874 0.6049,-1.33146 0.19357,-0.77271 0.19357,-1.69997 z m 12.64262,5.3377 q 0,0.0951 -0.0484,0.16643 -0.0484,0.0595 -0.15728,0.10699 -0.10888,0.0476 -0.30245,0.0714 -0.19358,0.0238 -0.49603,0.0238 -0.29035,0 -0.48393,-0.0238 -0.19357,-0.0238 -0.31455,-0.0714 -0.10889,-0.0476 -0.15728,-0.10699 -0.0363,-0.0714 -0.0363,-0.16643 V 97.104579 q 0,-0.0951 0.0363,-0.166432 0.0484,-0.07132 0.15728,-0.11888 0.12098,-0.04755 0.31455,-0.07133 0.19358,-0.02377 0.48393,-0.02377 0.30245,0 0.49603,0.02377 0.19357,0.02378 0.30245,0.07133 0.10889,0.04755 0.15728,0.11888 0.0484,0.07133 0.0484,0.166432 z m 19.4176,-5.46847 q 0,1.30768 -0.35085,2.41326 -0.35084,1.09369 -1.05255,1.89019 -0.68959,0.79649 -1.74213,1.24824 -1.04045,0.43985 -2.41964,0.43985 -1.3429,0 -2.34705,-0.3923 -0.99205,-0.39231 -1.65745,-1.14125 -0.6654,-0.74894 -0.99205,-1.81886 -0.32666,-1.06991 -0.32666,-2.42514 0,-1.30768 0.33875,-2.40138 0.35085,-1.10558 1.04044,-1.90208 0.70171,-0.79649 1.74215,-1.23635 1.04044,-0.43985 2.43173,-0.43985 1.3429,0 2.33496,0.3923 1.00415,0.3923 1.66955,1.14125 0.66539,0.74894 0.99205,1.81886 0.33875,1.06991 0.33875,2.41326 z m -2.10509,0.13077 q 0,-0.86782 -0.16937,-1.64054 -0.15728,-0.77273 -0.53232,-1.35523 -0.37504,-0.58252 -1.01625,-0.91538 -0.6412,-0.34475 -1.59696,-0.34475 -0.88317,0 -1.52438,0.30909 -0.62911,0.30908 -1.04043,0.87971 -0.41134,0.55873 -0.61702,1.33145 -0.19357,0.77272 -0.19357,1.6881 0,0.8797 0.15727,1.65242 0.16938,0.77272 0.54443,1.35523 0.38714,0.57063 1.02835,0.91537 0.64119,0.33287 1.59695,0.33287 0.87107,0 1.51228,-0.30909 0.6412,-0.30909 1.05254,-0.86782 0.41134,-0.55874 0.60491,-1.33146 0.19357,-0.77271 0.19357,-1.69997 z m 19.74427,-4.87408 q 0,0.41608 -0.12098,0.60629 -0.10889,0.17832 -0.29035,0.17832 h -1.56067 q 0.42344,0.42797 0.59282,0.95104 0.16936,0.51118 0.16936,1.06992 0,0.92726 -0.30245,1.64054 -0.30246,0.71328 -0.87107,1.21257 -0.55651,0.48741 -1.3308,0.74895 -0.77429,0.26153 -1.71794,0.26153 -0.66541,0 -1.27032,-0.16643 -0.59281,-0.17832 -0.91946,-0.43986 -0.21777,0.21399 -0.36295,0.48741 -0.13308,0.27343 -0.13308,0.63007 0,0.41607 0.38715,0.6895 0.39924,0.27342 1.05254,0.2972 l 2.84307,0.11887 q 0.81059,0.0238 1.48808,0.22588 0.6775,0.1902 1.17353,0.55874 0.49603,0.35663 0.77429,0.89159 0.27825,0.52307 0.27825,1.22446 0,0.73706 -0.31455,1.40278 -0.31456,0.66573 -0.96786,1.16503 -0.6412,0.51118 -1.64535,0.79649 -1.00416,0.2972 -2.37124,0.2972 -1.31871,0 -2.25027,-0.22587 -0.91946,-0.21399 -1.51228,-0.5944 -0.59281,-0.38041 -0.85897,-0.91537 -0.26615,-0.52308 -0.26615,-1.14125 0,-0.3923 0.0967,-0.76083 0.0967,-0.36853 0.29035,-0.7014 0.20568,-0.33286 0.49603,-0.63006 0.30245,-0.30908 0.6896,-0.60628 -0.59281,-0.29721 -0.88317,-0.74895 -0.27826,-0.45174 -0.27826,-0.97481 0,-0.72516 0.30245,-1.29579 0.30246,-0.57062 0.75009,-1.02236 -0.37504,-0.43986 -0.5928,-0.98671 -0.21777,-0.55873 -0.21777,-1.34334 0,-0.91537 0.31455,-1.64054 0.31455,-0.72517 0.87107,-1.22446 0.55652,-0.4993 1.33079,-0.76083 0.7864,-0.27343 1.70586,-0.27343 0.49602,0 0.91945,0.0594 0.43554,0.0476 0.81059,0.14266 h 3.29071 q 0.20567,0 0.30245,0.20209 0.10888,0.19021 0.10888,0.5944 z m -3.12133,2.81745 q 0,-1.09369 -0.61701,-1.69998 -0.60491,-0.61817 -1.73004,-0.61817 -0.58071,0 -1.01624,0.19021 -0.42345,0.19021 -0.7138,0.52307 -0.27826,0.33286 -0.42344,0.77272 -0.13308,0.42796 -0.13308,0.90348 0,1.05803 0.60491,1.66432 0.61701,0.60629 1.71795,0.60629 0.5928,0 1.02834,-0.17832 0.43553,-0.19021 0.71379,-0.51118 0.29037,-0.33286 0.42345,-0.76084 0.14517,-0.42796 0.14517,-0.8916 z m 1.00415,8.47614 q 0,-0.68951 -0.58071,-1.05804 -0.56861,-0.38041 -1.54857,-0.40419 l -2.81888,-0.0951 q -0.38714,0.2972 -0.64121,0.57062 -0.24196,0.26154 -0.38714,0.4993 -0.14517,0.24964 -0.20567,0.48741 -0.0484,0.23775 -0.0484,0.4874 0,0.77272 0.79848,1.16502 0.79848,0.40419 2.22607,0.40419 0.90737,0 1.51228,-0.17832 0.617,-0.16643 0.99204,-0.45174 0.37504,-0.28531 0.53233,-0.65383 0.16937,-0.36853 0.16937,-0.77272 z m 12.27966,-1.08181 q 0,0.0951 -0.0484,0.16643 -0.0484,0.0595 -0.15729,0.10699 -0.10888,0.0476 -0.30245,0.0714 -0.19358,0.0238 -0.49602,0.0238 -0.29036,0 -0.48394,-0.0238 -0.19357,-0.0238 -0.31454,-0.0714 -0.10889,-0.0476 -0.15728,-0.10699 -0.0363,-0.0714 -0.0363,-0.16643 v -10.69918 q 0,-0.0832 0.0363,-0.15455 0.0484,-0.0713 0.15728,-0.11888 0.12097,-0.0476 0.31454,-0.0713 0.19358,-0.0238 0.48394,-0.0238 0.30244,0 0.49602,0.0238 0.19357,0.0238 0.30245,0.0713 0.10889,0.0476 0.15729,0.11888 0.0484,0.0713 0.0484,0.15455 z m 0.22986,-14.313128 q 0,0.689502 -0.26616,0.93915 -0.26616,0.249648 -0.97995,0.249648 -0.7017,0 -0.96786,-0.23776 -0.25406,-0.249647 -0.25406,-0.927262 0,-0.689503 0.26616,-0.93915 0.26616,-0.249648 0.97995,-0.249648 0.70169,0 0.95576,0.249648 0.26616,0.237759 0.26616,0.915374 z m 16.88908,12.684478 q 0,0.20209 -0.0121,0.35664 -0.0121,0.14265 -0.0484,0.24964 -0.0242,0.0951 -0.0726,0.17832 -0.0363,0.0714 -0.19357,0.22587 -0.14518,0.14266 -0.50813,0.36853 -0.36294,0.21398 -0.82268,0.39231 -0.44763,0.16643 -0.97995,0.27342 -0.53232,0.10699 -1.10093,0.10699 -1.17353,0 -2.08089,-0.38041 -0.90737,-0.38042 -1.52437,-1.10559 -0.60492,-0.73705 -0.93157,-1.79508 -0.31455,-1.06992 -0.31455,-2.46082 0,-1.58109 0.38714,-2.71045 0.39924,-1.14125 1.07674,-1.86642 0.68959,-0.72516 1.60906,-1.06991 0.93156,-0.35664 2.0083,-0.35664 0.52022,0 1.00415,0.0951 0.49602,0.0951 0.90736,0.24964 0.41134,0.15455 0.7259,0.35664 0.32665,0.2021 0.47182,0.34476 0.14519,0.14265 0.19358,0.22587 0.0605,0.0832 0.0967,0.20209 0.0363,0.10699 0.0484,0.24965 0.0121,0.14266 0.0121,0.35664 0,0.46363 -0.10888,0.65384 -0.10889,0.17832 -0.26616,0.17832 -0.18147,0 -0.42343,-0.19021 -0.22987,-0.20209 -0.59282,-0.43985 -0.36294,-0.23776 -0.88316,-0.42797 -0.50813,-0.2021 -1.20983,-0.2021 -1.43968,0 -2.21397,1.0937 -0.76218,1.0818 -0.76218,3.15031 0,1.03426 0.19357,1.81886 0.20566,0.77272 0.59281,1.29579 0.38714,0.52307 0.94366,0.78461 0.56862,0.24965 1.2945,0.24965 0.6896,0 1.20983,-0.21399 0.52022,-0.21398 0.89526,-0.46363 0.38715,-0.26153 0.64121,-0.46362 0.26616,-0.21399 0.41134,-0.21399 0.0847,0 0.14517,0.0476 0.0605,0.0476 0.0967,0.16644 0.0484,0.10698 0.0605,0.2853 0.0242,0.16644 0.0242,0.4042 z m 16.45354,1.64054 q 0,0.14265 -0.0967,0.21398 -0.0967,0.0714 -0.26617,0.10699 -0.16936,0.0357 -0.49601,0.0357 -0.31456,0 -0.50813,-0.0357 -0.18147,-0.0357 -0.26616,-0.10699 -0.0847,-0.0714 -0.0847,-0.21398 v -1.06993 q -0.71379,0.74895 -1.59697,1.16503 -0.87107,0.41608 -1.85102,0.41608 -0.85896,0 -1.56067,-0.22588 -0.68959,-0.21397 -1.18561,-0.63006 -0.48393,-0.41608 -0.76219,-1.02236 -0.26616,-0.60629 -0.26616,-1.37901 0,-0.90349 0.37504,-1.56921 0.37505,-0.66573 1.07674,-1.10558 0.7017,-0.43985 1.71794,-0.65384 1.01625,-0.22587 2.28657,-0.22587 h 1.50017 v -0.83216 q 0,-0.61817 -0.13308,-1.0937 -0.13308,-0.47551 -0.43553,-0.7846 -0.29036,-0.32098 -0.7622,-0.47552 -0.47182,-0.16643 -1.16142,-0.16643 -0.73799,0 -1.3308,0.17832 -0.58071,0.16643 -1.02835,0.38041 -0.43553,0.2021 -0.73799,0.38042 -0.29035,0.16643 -0.43554,0.16643 -0.0967,0 -0.16936,-0.0476 -0.0726,-0.0476 -0.13309,-0.14266 -0.0484,-0.0951 -0.0726,-0.23776 -0.0242,-0.15454 -0.0242,-0.33286 0,-0.2972 0.0363,-0.46363 0.0484,-0.17832 0.20566,-0.33287 0.16938,-0.15454 0.56861,-0.35663 0.39925,-0.21399 0.91947,-0.38042 0.52023,-0.17832 1.13723,-0.28531 0.617,-0.11888 1.24611,-0.11888 1.17353,0 1.9962,0.26153 0.82268,0.26154 1.3308,0.77272 0.50813,0.4993 0.73799,1.24824 0.22987,0.74894 0.22987,1.74754 z m -1.9841,-4.88596 h -1.70585 q -0.82268,0 -1.42758,0.14265 -0.60491,0.13077 -1.00416,0.40419 -0.39923,0.26154 -0.5928,0.64195 -0.18147,0.36853 -0.18147,0.85594 0,0.83216 0.53231,1.33146 0.54442,0.4874 1.51228,0.4874 0.78638,0 1.45179,-0.3923 0.67749,-0.39231 1.41548,-1.20069 z m 18.0868,1.96151 q 0,0.82028 -0.31455,1.46223 -0.30245,0.64195 -0.87107,1.0818 -0.56861,0.43985 -1.355,0.66572 -0.78638,0.22588 -1.73004,0.22588 -0.58071,0 -1.11304,-0.0951 -0.52021,-0.0833 -0.94365,-0.21398 -0.41134,-0.14266 -0.7017,-0.28531 -0.29036,-0.15454 -0.42344,-0.27342 -0.13308,-0.11888 -0.19357,-0.33286 -0.0605,-0.21399 -0.0605,-0.58252 0,-0.22587 0.0242,-0.38041 0.0242,-0.15455 0.0605,-0.24965 0.0363,-0.0951 0.0969,-0.13077 0.0726,-0.0476 0.15727,-0.0476 0.13308,0 0.38714,0.16643 0.26616,0.15454 0.64121,0.34475 0.38714,0.19022 0.90736,0.35664 0.52022,0.15455 1.19772,0.15455 0.50813,0 0.91947,-0.107 0.41134,-0.10699 0.71379,-0.30909 0.30246,-0.21397 0.45973,-0.53495 0.16938,-0.32097 0.16938,-0.76083 0,-0.45174 -0.24197,-0.76083 -0.22986,-0.30909 -0.61701,-0.54685 -0.38714,-0.23776 -0.87106,-0.41608 -0.48393,-0.1902 -1.00415,-0.3923 -0.50813,-0.20209 -1.00416,-0.45175 -0.48393,-0.26153 -0.87107,-0.63006 -0.38713,-0.36853 -0.62911,-0.87971 -0.22986,-0.51119 -0.22986,-1.22446 0,-0.63006 0.24197,-1.20069 0.25406,-0.58251 0.75009,-1.01048 0.49602,-0.43985 1.23401,-0.70139 0.75009,-0.26153 1.74215,-0.26153 0.43553,0 0.87106,0.0713 0.43554,0.0713 0.78639,0.17832 0.35084,0.10699 0.5928,0.23776 0.25407,0.11888 0.37505,0.21398 0.13307,0.0951 0.16937,0.16643 0.0484,0.0713 0.0605,0.16643 0.0242,0.0832 0.0363,0.21399 0.0242,0.13077 0.0242,0.32097 0,0.2021 -0.0242,0.35664 -0.0121,0.14266 -0.0605,0.23776 -0.0363,0.0951 -0.0968,0.14266 -0.0605,0.0357 -0.13308,0.0357 -0.10888,0 -0.31455,-0.13077 -0.20567,-0.13077 -0.53232,-0.27343 -0.32665,-0.15454 -0.77428,-0.28531 -0.43554,-0.13077 -1.00416,-0.13077 -0.50812,0 -0.89526,0.11888 -0.38715,0.10699 -0.6412,0.32098 -0.24197,0.20209 -0.37505,0.48741 -0.12098,0.28531 -0.12098,0.61817 0,0.46364 0.24196,0.78461 0.24196,0.30908 0.62911,0.54685 0.38714,0.23776 0.88317,0.42796 0.49602,0.19021 1.00415,0.39231 0.52022,0.20209 1.01625,0.45174 0.50812,0.24964 0.89526,0.60628 0.38715,0.35665 0.61701,0.85594 0.24196,0.4993 0.24196,1.1888 z"
       id="text33"
       style="font-size:24.5609px;font-family:Calibri;-inkscape-font-specification:'Calibri, Normal';stroke:#52baf7;stroke-width:0.605402;stroke-linecap:round;stroke-linejoin:round;stroke-opacity:0"
       aria-label="S o l u c i o n e s   T e c n o l o g i c a s" />
  </g>
  <g
     id="text1">
    <path
       style="color:#000000;-inkscape-font-specification:'Arial, Normal';fill:#868686;stroke-linecap:round;stroke-linejoin:round;-inkscape-stroke:none"
       d="m 299.73047,98.019531 h 1.9707 l -1.99805,2.544919 h -1.18164 z"
       id="path5" />
    <path
       style="color:#000000;-inkscape-font-specification:'Arial, Normal';fill:#868686;stroke-linecap:round;stroke-linejoin:round;-inkscape-stroke:none"
       d="m 299.62109,97.675781 a 0.17222721,0.17222721 0 0 0 -0.15429,0.09766 l -1.37305,2.888669 a 0.17222721,0.17222721 0 0 0 0.15625,0.24609 h 1.53711 a 0.17222721,0.17222721 0 0 0 0.13476,-0.0664 l 2.26954,-2.888671 a 0.17222721,0.17222721 0 0 0 -0.13672,-0.277344 z"
       id="path4" />
  </g>
</svg>
